<svg width="30" height="27" viewBox="0 0 30 27" fill="none" xmlns="http://www.w3.org/2000/svg">
<path fill-rule="evenodd" clip-rule="evenodd" d="M20.4773 14.5H10.9548L8.90851 7H24.2273L20.4773 14.5ZM26.3535 5.685C25.8948 4.9425 25.0998 4.5 24.2273 4.5H8.22726L7.45601 1.67125C7.30726 1.1275 6.81351 0.75 6.24976 0.75H3.74976C3.05851 0.75 2.49976 1.31 2.49976 2C2.49976 2.69 3.05851 3.25 3.74976 3.25H5.29476L8.79351 16.0787C8.94226 16.6225 9.43601 17 9.99976 17H21.2498C21.7235 17 22.156 16.7325 22.3685 16.3087L26.4635 8.1175C26.8548 7.33625 26.8123 6.4275 26.3535 5.685ZM9.37501 19.5C8.34001 19.5 7.50001 20.3388 7.50001 21.375C7.50001 22.4112 8.34001 23.25 9.37501 23.25C10.41 23.25 11.25 22.4112 11.25 21.375C11.25 20.3388 10.41 19.5 9.37501 19.5ZM20 21.375C20 20.3388 20.84 19.5 21.875 19.5C22.91 19.5 23.75 20.3388 23.75 21.375C23.75 22.4112 22.91 23.25 21.875 23.25C20.84 23.25 20 22.4112 20 21.375Z" fill="#85C6EF"/>
<mask id="mask0_458_940" style="mask-type:luminance" maskUnits="userSpaceOnUse" x="2" y="0" width="25" height="24">
<path fill-rule="evenodd" clip-rule="evenodd" d="M20.4773 14.5H10.9548L8.90851 7H24.2273L20.4773 14.5ZM26.3535 5.685C25.8948 4.9425 25.0998 4.5 24.2273 4.5H8.22726L7.45601 1.67125C7.30726 1.1275 6.81351 0.75 6.24976 0.75H3.74976C3.05851 0.75 2.49976 1.31 2.49976 2C2.49976 2.69 3.05851 3.25 3.74976 3.25H5.29476L8.79351 16.0787C8.94226 16.6225 9.43601 17 9.99976 17H21.2498C21.7235 17 22.156 16.7325 22.3685 16.3087L26.4635 8.1175C26.8548 7.33625 26.8123 6.4275 26.3535 5.685ZM9.37501 19.5C8.34001 19.5 7.50001 20.3388 7.50001 21.375C7.50001 22.4112 8.34001 23.25 9.37501 23.25C10.41 23.25 11.25 22.4112 11.25 21.375C11.25 20.3388 10.41 19.5 9.37501 19.5ZM20 21.375C20 20.3388 20.84 19.5 21.875 19.5C22.91 19.5 23.75 20.3388 23.75 21.375C23.75 22.4112 22.91 23.25 21.875 23.25C20.84 23.25 20 22.4112 20 21.375Z" fill="white"/>
</mask>
<g mask="url(#mask0_458_940)">
<rect y="-3" width="30" height="30" fill="#85C6EF"/>
</g>
</svg>
