<svg width="38" height="38" viewBox="0 0 38 38" fill="none" xmlns="http://www.w3.org/2000/svg">
<path fill-rule="evenodd" clip-rule="evenodd" d="M20.354 7.82847C20.354 8.6943 19.6526 9.39417 18.7883 9.39417C17.924 9.39417 17.2226 8.6943 17.2226 7.82847V4.69708C17.2226 3.83126 17.924 3.13139 18.7883 3.13139C19.6526 3.13139 20.354 3.83126 20.354 4.69708V7.82847ZM20.354 24.2053C20.354 23.6464 20.653 23.1281 21.1384 22.8479C22.5867 22.0165 23.4854 20.4602 23.4854 18.788C23.4854 16.1984 21.378 14.0909 18.7883 14.0909C16.1986 14.0909 14.0912 16.1984 14.0912 18.788C14.0912 20.4602 14.9899 22.0165 16.4382 22.8479C16.9236 23.1281 17.2226 23.6464 17.2226 24.2053V31.3136H20.354V24.2053ZM10.9598 18.788C10.9598 14.4714 14.4717 10.9596 18.7883 10.9596C23.1049 10.9596 26.6168 14.4714 26.6168 18.788C26.6168 21.2603 25.4362 23.5822 23.4854 25.0445V31.3136C23.4854 33.0406 22.081 34.445 20.354 34.445H17.2226C15.4956 34.445 14.0912 33.0406 14.0912 31.3136V25.0445C12.1388 23.5822 10.9598 21.2603 10.9598 18.788ZM32.8796 17.2226H29.7482C28.8823 17.2226 28.1825 17.9225 28.1825 18.7883C28.1825 19.6542 28.8823 20.354 29.7482 20.354H32.8796C33.7454 20.354 34.4453 19.6542 34.4453 18.7883C34.4453 17.9225 33.7454 17.2226 32.8796 17.2226ZM4.69704 17.2226H7.82843C8.6927 17.2226 9.39413 17.9225 9.39413 18.7883C9.39413 19.6542 8.6927 20.354 7.82843 20.354H4.69704C3.83278 20.354 3.13135 19.6542 3.13135 18.7883C3.13135 17.9225 3.83278 17.2226 4.69704 17.2226ZM11.9927 10.0486L9.73968 7.87231C9.1181 7.27265 8.12858 7.29144 7.52578 7.91302C6.92456 8.53304 6.94178 9.52569 7.56336 10.1269L9.8164 12.3017C10.1217 12.596 10.5131 12.7416 10.9046 12.7416C11.3148 12.7416 11.7234 12.5804 12.0303 12.2625C12.6315 11.6425 12.6143 10.6499 11.9927 10.0486ZM27.8371 7.87498C28.4571 7.27532 29.4529 7.29254 30.0494 7.91255C30.6506 8.53257 30.6334 9.52522 30.0118 10.1249L27.7588 12.3012C27.4566 12.594 27.0636 12.7412 26.6722 12.7412C26.262 12.7412 25.8518 12.5799 25.5465 12.2621C24.9452 11.642 24.9625 10.6494 25.584 10.0497L27.8371 7.87498Z" fill="#FFAD02"/>
<mask id="mask0_469_367" style="mask-type:luminance" maskUnits="userSpaceOnUse" x="3" y="3" width="32" height="32">
<path fill-rule="evenodd" clip-rule="evenodd" d="M20.354 7.82847C20.354 8.6943 19.6526 9.39417 18.7883 9.39417C17.924 9.39417 17.2226 8.6943 17.2226 7.82847V4.69708C17.2226 3.83126 17.924 3.13139 18.7883 3.13139C19.6526 3.13139 20.354 3.83126 20.354 4.69708V7.82847ZM20.354 24.2053C20.354 23.6464 20.653 23.1281 21.1384 22.8479C22.5867 22.0165 23.4854 20.4602 23.4854 18.788C23.4854 16.1984 21.378 14.0909 18.7883 14.0909C16.1986 14.0909 14.0912 16.1984 14.0912 18.788C14.0912 20.4602 14.9899 22.0165 16.4382 22.8479C16.9236 23.1281 17.2226 23.6464 17.2226 24.2053V31.3136H20.354V24.2053ZM10.9598 18.788C10.9598 14.4714 14.4717 10.9596 18.7883 10.9596C23.1049 10.9596 26.6168 14.4714 26.6168 18.788C26.6168 21.2603 25.4362 23.5822 23.4854 25.0445V31.3136C23.4854 33.0406 22.081 34.445 20.354 34.445H17.2226C15.4956 34.445 14.0912 33.0406 14.0912 31.3136V25.0445C12.1388 23.5822 10.9598 21.2603 10.9598 18.788ZM32.8796 17.2226H29.7482C28.8823 17.2226 28.1825 17.9225 28.1825 18.7883C28.1825 19.6542 28.8823 20.354 29.7482 20.354H32.8796C33.7454 20.354 34.4453 19.6542 34.4453 18.7883C34.4453 17.9225 33.7454 17.2226 32.8796 17.2226ZM4.69704 17.2226H7.82843C8.6927 17.2226 9.39413 17.9225 9.39413 18.7883C9.39413 19.6542 8.6927 20.354 7.82843 20.354H4.69704C3.83278 20.354 3.13135 19.6542 3.13135 18.7883C3.13135 17.9225 3.83278 17.2226 4.69704 17.2226ZM11.9927 10.0486L9.73968 7.87231C9.1181 7.27265 8.12858 7.29144 7.52578 7.91302C6.92456 8.53304 6.94178 9.52569 7.56336 10.1269L9.8164 12.3017C10.1217 12.596 10.5131 12.7416 10.9046 12.7416C11.3148 12.7416 11.7234 12.5804 12.0303 12.2625C12.6315 11.6425 12.6143 10.6499 11.9927 10.0486ZM27.8371 7.87498C28.4571 7.27532 29.4529 7.29254 30.0494 7.91255C30.6506 8.53257 30.6334 9.52522 30.0118 10.1249L27.7588 12.3012C27.4566 12.594 27.0636 12.7412 26.6722 12.7412C26.262 12.7412 25.8518 12.5799 25.5465 12.2621C24.9452 11.642 24.9625 10.6494 25.584 10.0497L27.8371 7.87498Z" fill="white"/>
</mask>
<g mask="url(#mask0_469_367)">
<rect width="37.5767" height="37.5767" fill="#17A4FE"/>
</g>
</svg>
