<svg width="38" height="38" viewBox="0 0 38 38" fill="none" xmlns="http://www.w3.org/2000/svg">
<path fill-rule="evenodd" clip-rule="evenodd" d="M18.7884 21.9197H14.0913C13.227 21.9197 12.5256 21.2183 12.5256 20.354C12.5256 19.4898 13.227 18.7883 14.0913 18.7883H18.7884C19.6527 18.7883 20.3541 19.4898 20.3541 20.354C20.3541 21.2183 19.6527 21.9197 18.7884 21.9197ZM14.0913 25.0511H23.4855C24.3513 25.0511 25.0512 25.7526 25.0512 26.6168C25.0512 27.4811 24.3513 28.1825 23.4855 28.1825H14.0913C13.227 28.1825 12.5256 27.4811 12.5256 26.6168C12.5256 25.7526 13.227 25.0511 14.0913 25.0511ZM27.3125 31.3139H10.2637C9.78455 31.3139 9.3947 30.9632 9.3947 30.5311V7.04563C9.3947 6.6135 9.78455 6.26278 10.2637 6.26278H18.7889V11.1947C18.7889 13.656 20.6943 15.657 23.0382 15.657H28.183V30.5311C28.183 30.9632 27.7932 31.3139 27.3125 31.3139V31.3139ZM21.9203 7.79403L26.2134 12.5256H23.0382C22.4213 12.5256 21.9203 11.929 21.9203 11.1947V7.79403ZM30.9073 13.0391L22.3837 3.64494C22.0862 3.31771 21.6666 3.13139 21.2235 3.13139H10.2637C8.05759 3.13139 6.26331 4.8881 6.26331 7.04563V30.5311C6.26331 32.6886 8.05759 34.4453 10.2637 34.4453H27.3125C29.5186 34.4453 31.3144 32.6886 31.3144 30.5311V14.0913C31.3144 13.7014 31.1688 13.3272 30.9073 13.0391V13.0391Z" fill="#FFF4F4"/>
<mask id="mask0_469_350" style="mask-type:luminance" maskUnits="userSpaceOnUse" x="6" y="3" width="26" height="32">
<path fill-rule="evenodd" clip-rule="evenodd" d="M18.7884 21.9197H14.0913C13.227 21.9197 12.5256 21.2183 12.5256 20.354C12.5256 19.4898 13.227 18.7883 14.0913 18.7883H18.7884C19.6527 18.7883 20.3541 19.4898 20.3541 20.354C20.3541 21.2183 19.6527 21.9197 18.7884 21.9197ZM14.0913 25.0511H23.4855C24.3513 25.0511 25.0512 25.7526 25.0512 26.6168C25.0512 27.4811 24.3513 28.1825 23.4855 28.1825H14.0913C13.227 28.1825 12.5256 27.4811 12.5256 26.6168C12.5256 25.7526 13.227 25.0511 14.0913 25.0511ZM27.3125 31.3139H10.2637C9.78455 31.3139 9.3947 30.9632 9.3947 30.5311V7.04563C9.3947 6.6135 9.78455 6.26278 10.2637 6.26278H18.7889V11.1947C18.7889 13.656 20.6943 15.657 23.0382 15.657H28.183V30.5311C28.183 30.9632 27.7932 31.3139 27.3125 31.3139V31.3139ZM21.9203 7.79403L26.2134 12.5256H23.0382C22.4213 12.5256 21.9203 11.929 21.9203 11.1947V7.79403ZM30.9073 13.0391L22.3837 3.64494C22.0862 3.31771 21.6666 3.13139 21.2235 3.13139H10.2637C8.05759 3.13139 6.26331 4.8881 6.26331 7.04563V30.5311C6.26331 32.6886 8.05759 34.4453 10.2637 34.4453H27.3125C29.5186 34.4453 31.3144 32.6886 31.3144 30.5311V14.0913C31.3144 13.7014 31.1688 13.3272 30.9073 13.0391V13.0391Z" fill="white"/>
</mask>
<g mask="url(#mask0_469_350)">
<rect width="37.5767" height="37.5767" fill="#17A4FE"/>
</g>
</svg>
