<svg width="21" height="22" viewBox="0 0 21 22" fill="none" xmlns="http://www.w3.org/2000/svg">
<g clip-path="url(#clip0_907_1870)">
<path d="M12.805 1.90779C12.713 1.90968 12.6905 2.04757 12.7825 2.07212C14.1452 2.42157 13.3568 3.66824 12.4765 4.00635C12.073 4.16124 11.3672 4.30858 10.7703 4.27269C10.851 4.23113 10.8417 4.10458 10.7328 4.09513C10.1528 4.04602 9.58781 4.01013 9.02658 3.83824C8.65493 3.72491 7.94918 3.35846 7.88348 2.92213C8.18005 2.16657 9.35881 1.62823 10.104 1.79823C10.1565 1.80956 10.1828 1.76045 10.1678 1.72268C10.3198 1.74156 10.4719 1.75101 10.6202 1.74912C10.547 1.94934 10.4869 2.15146 10.4531 2.36301C10.119 2.34979 9.71357 2.45368 9.68917 2.84846C9.66101 3.28102 10.2279 3.39813 10.5357 3.47935C10.973 3.59268 11.7708 3.7948 12.1781 3.51146C12.4484 3.32257 12.4634 2.9939 12.3076 2.74268C12.3996 2.63124 12.4596 2.47823 12.5272 2.35357C12.6079 2.20057 12.6849 2.04945 12.7449 1.88701C12.7637 1.8379 12.6886 1.79445 12.6567 1.83412C12.5479 1.96823 12.454 2.1099 12.3639 2.25723C12.2776 2.3989 12.1481 2.55001 12.1143 2.71624C12.103 2.77101 12.1405 2.81068 12.1837 2.82013C12.5572 3.54168 11.1438 3.36035 10.8529 3.29991C10.7028 3.26968 10.4944 3.23568 10.3536 3.16957C10.0815 3.13557 10.0308 2.94479 10.1997 2.59724C10.3273 2.58212 10.455 2.5689 10.5826 2.55946C10.6765 2.5519 10.7159 2.39701 10.607 2.38001H10.6051C10.6746 2.13823 10.7591 1.90401 10.8905 1.68868C10.943 1.60367 10.8773 1.51112 10.7928 1.50734C10.4719 1.48845 10.1584 1.44879 9.83933 1.42045C9.73609 1.41101 9.70418 1.53001 9.74923 1.60179C9.29875 1.57534 8.84263 1.78501 8.44846 2.00412C8.06931 2.21568 7.67701 2.52735 7.69953 3.00335C7.70141 3.05624 7.74834 3.0789 7.79151 3.07324C7.82717 3.29046 7.9473 3.50391 8.135 3.6588C8.65118 4.08758 9.48082 4.27836 10.2072 4.30102C10.6295 4.51258 11.2095 4.45213 11.6488 4.41624C12.2644 4.36713 12.8876 4.2028 13.3381 3.75135C14.0532 3.03735 13.9894 1.87379 12.805 1.90779Z" fill="#FC645F"/>
<path d="M18.7926 11.3069C19.4571 10.5211 19.8475 9.16303 19.061 8.30736C18.1413 7.30435 17.3623 9.24047 17.2159 10.0433C17.2046 10.1018 17.2628 10.1188 17.2891 10.0791C17.2628 10.9896 17.2722 11.9019 17.2778 12.8124C17.2816 13.5585 17.1296 14.7806 17.4336 15.4209C17.3905 15.3284 17.2891 15.3983 17.3004 15.4871C17.3079 15.5494 17.3154 15.6117 17.3229 15.6741C17.3398 15.8119 17.5237 15.7742 17.5256 15.6419C17.535 13.7606 17.5068 11.8604 17.3961 9.98281C17.3942 9.94692 17.3717 9.92803 17.3492 9.92614C17.4543 9.62581 17.5594 9.32358 17.7058 9.04969C17.8015 8.86836 18.0211 8.5208 18.207 8.44525C18.4416 8.46036 18.6743 8.47736 18.909 8.49247C19.0122 8.6058 19.0873 8.73991 19.1323 8.8948C19.5077 9.8827 19.0141 10.8196 18.3571 11.4221C18.2633 11.509 18.3872 11.6979 18.4848 11.6167C18.496 11.6073 18.5054 11.5978 18.5167 11.5884C18.5373 11.6054 18.5655 11.6129 18.5955 11.5959C19.4608 11.1218 19.8531 12.2873 19.6485 13.0183C19.5265 13.4508 19.2656 13.7889 18.9859 14.0893C18.5373 14.5728 18.0193 14.9619 17.5857 15.4625C17.5162 15.5437 17.6063 15.6892 17.6927 15.6249C18.5448 14.9789 19.8982 13.9382 19.9432 12.5989C19.9676 11.815 19.412 11.1407 18.7926 11.3069Z" fill="#FC645F"/>
<path d="M18.2615 10.4362C18.2465 10.3663 18.2221 10.2964 18.2071 10.2265C18.1714 10.0716 18.1489 9.91294 18.1188 9.75616C18.1019 9.6655 17.9762 9.68438 17.9799 9.77883C17.9874 9.9375 18.01 10.0962 18.0325 10.2529C18.0531 10.3927 18.0531 10.5665 18.1451 10.6685C18.1733 10.7006 18.2146 10.6987 18.2427 10.6723C18.254 10.6742 18.2652 10.6742 18.2765 10.6723C18.7101 10.5892 19.0254 9.9545 18.7964 9.48983C18.6106 9.11394 18.0607 9.14605 18.0062 9.61827C17.9968 9.69761 18.0907 9.73538 18.1113 9.65227C18.1545 9.48416 18.3197 9.38783 18.4642 9.43694C18.5937 9.48038 18.6632 9.64283 18.6744 9.78827C18.7026 10.1321 18.4717 10.2794 18.2615 10.4362Z" fill="#FC645F"/>
<path d="M18.1939 13.8852C18.1977 13.889 18.2014 13.8909 18.2052 13.8928C18.2333 13.9098 18.2652 13.9155 18.3009 13.8947C18.6894 13.668 19.2037 13.2884 19.0817 12.682C19.0085 12.3212 18.5843 12.0643 18.3422 12.3779C18.3328 12.3892 18.3309 12.4025 18.3291 12.4176C18.2972 12.41 18.2634 12.4232 18.254 12.4667C18.1827 12.8596 18.1226 13.3091 18.1564 13.7171C18.1245 13.77 18.147 13.8456 18.1939 13.8852ZM18.3779 12.5082C18.391 12.512 18.4079 12.5101 18.4229 12.4988C18.7608 12.2532 18.9841 12.7406 18.8452 13.0806C18.7458 13.3242 18.5468 13.4716 18.3441 13.5925C18.3591 13.2317 18.3478 12.8709 18.3779 12.5082Z" fill="#FC645F"/>
<path d="M17.3117 21.9999H0V4.57861H17.3117V21.9999ZM1.06427 20.9289H16.2474V5.64773H1.06427V20.9289Z" fill="#FC645F"/>
<path d="M17.3116 22V5.31722L21 0.0566406L20.9962 16.8678L17.3116 22ZM17.3116 5.31722V19.9883L20.3017 16.3881L20.0915 2.1741L17.3116 5.31722Z" fill="#FC645F"/>
<path d="M16.9964 5.66668L16.2024 4.95268L20.4088 0.207764L20.9963 1.12766L16.9964 5.66668Z" fill="#FC645F"/>
<path d="M5.63325 -0.000204333L5.62939 1.0708L20.9965 1.12679L21.0003 0.055781L5.63325 -0.000204333Z" fill="#FC645F"/>
<path d="M0.763944 5.52125L0 4.57869L5.63291 0L6.12656 0.90856L0.763944 5.52125Z" fill="#FC645F"/>
<path d="M8.33952 15.3378L7.84399 15.1961L8.33389 12.9691L9.02088 12.9011L8.33952 15.3378Z" fill="#FC645F"/>
<path d="M9.19553 15.4662L8.33398 12.9691L9.02097 12.6121L9.7455 15.4794L9.19553 15.4662Z" fill="#FC645F"/>
<path d="M9.74546 15.4796H7.7821L7.88346 15.0225L9.63096 15.0281L9.74546 15.4796Z" fill="#FC645F"/>
<path d="M6.01772 17.9634H5.47339L7.20024 10.1604H7.74457L6.01772 17.9634Z" fill="#FC645F"/>
<path d="M10.1095 10.2982L7.1908 10.2L7.27338 9.80713L10.0119 9.84113L10.1095 10.2982Z" fill="#FC645F"/>
<path d="M11.3935 18.1353L9.55212 10.2585L10.1096 10.2982L11.889 18.1239L11.3935 18.1353Z" fill="#FC645F"/>
<path d="M11.4689 17.6038L9.58459 17.6313L9.5923 18.1659L11.4766 18.1384L11.4689 17.6038Z" fill="#FC645F"/>
<path d="M9.71945 16.3173L9.18665 16.3337L9.24201 18.1537L9.77482 18.1373L9.71945 16.3173Z" fill="#FC645F"/>
<path d="M7.55472 15.9675L7.54346 16.502L9.69408 16.5478L9.70534 16.0134L7.55472 15.9675Z" fill="#FC645F"/>
<path d="M7.79713 18.0314L7.25842 18.0238L7.55875 16.4202L8.08055 16.5203L7.79713 18.0314Z" fill="#FC645F"/>
<path d="M7.51926 18.0144L5.7605 17.9559L5.77927 17.4478L7.53803 17.5063L7.51926 18.0144Z" fill="#FC645F"/>
</g>
<defs>
<clipPath id="clip0_907_1870">
<rect width="21" height="22" fill="white"/>
</clipPath>
</defs>
</svg>
