<svg width="102" height="68" viewBox="0 0 102 68" fill="none" xmlns="http://www.w3.org/2000/svg">
<path d="M76.4213 19.8739C79.008 19.5331 83.0753 18.3133 85.4479 17.2011L99.523 10.4919C101.896 9.36179 102.449 10.0973 100.772 12.1244L85.6441 30.386C83.9672 32.4131 83.6283 35.9471 84.8949 38.2612L95.0989 56.9175C96.3655 59.2316 95.5092 60.0747 93.2258 58.8011L75.333 48.863C73.0496 47.5893 70.3203 48.5222 69.2677 50.9439L63.7732 63.6625C62.7386 66.0842 61.7396 65.9048 61.5791 63.2678L60.0449 37.8486C59.8844 35.2295 58.4572 31.3548 56.8695 29.2559L41.4029 8.80568C39.8152 6.70685 40.4396 5.97141 42.7587 7.1733L58.8317 15.3892C61.1687 16.5911 64.8971 18.2415 67.127 19.0846C69.3569 19.9277 73.2993 20.3224 75.886 19.9816L76.4213 19.8739Z" fill="#FED444"/>
<path d="M80 8.49997C80 12.9224 76.6403 16.5 72.5001 16.5C68.3598 16.5 65 12.9224 65 8.49997C65 4.0775 68.3598 0.5 72.5001 0.5C76.6403 0.5 80 4.0775 80 8.49997Z" fill="#FED444"/>
<path d="M18.3546 32.431C16.4279 32.1619 13.4131 31.2112 11.6827 30.3142L1.65711 25.2017C-0.0911303 24.3227 -0.519249 24.8608 0.675977 26.4036L11.6293 40.5034C12.8245 42.0462 13.0742 44.737 12.1823 46.495L4.76112 60.9895C3.86916 62.7296 4.51145 63.3395 6.18834 62.3528L18.9969 54.7648C20.6738 53.7602 22.6538 54.4418 23.3853 56.2537L27.4169 66.2097C28.1483 68.0215 28.844 67.9139 28.9511 65.9585L30.0749 46.1362C30.182 44.1809 31.1989 41.2748 32.3406 39.6603L43.5436 23.8383C44.6675 22.2417 44.2036 21.7036 42.4911 22.6364L31.0026 28.915C29.2901 29.8478 26.5785 31.1394 24.973 31.7852C23.3674 32.431 20.4775 32.736 18.533 32.4489L18.3546 32.431Z" fill="#17A4FE"/>
<path d="M15 23.5C15 26.8236 17.6897 29.5 21 29.5C24.3103 29.5 27 26.8061 27 23.5C27 20.1939 24.3103 17.5 21 17.5C17.6708 17.5 15 20.1939 15 23.5Z" fill="#17A4FE"/>
</svg>
