<svg width="38" height="38" viewBox="0 0 38 38" fill="none" xmlns="http://www.w3.org/2000/svg">
<path fill-rule="evenodd" clip-rule="evenodd" d="M18.7621 11.4654L9.96757 20.2599L9.55422 24.8881L14.2153 24.4638L22.9832 15.6865L18.7621 11.4654ZM28.1296 10.5354L23.9101 6.31742L20.8601 9.3674L25.0797 13.5885L28.1296 10.5354ZM7.9713 28.1761C7.92277 28.1808 7.8758 28.1824 7.82883 28.1824C7.41548 28.1824 7.01623 28.0195 6.72188 27.7236C6.39308 27.3948 6.22712 26.9376 6.26939 26.4757L6.86279 19.9452C6.92855 19.2297 7.24482 18.5549 7.75367 18.046L21.8387 3.95949C22.9378 2.85724 24.9325 2.91204 26.0911 4.06909L30.378 8.35596H30.3795C31.5789 9.55685 31.6258 11.4623 30.486 12.6053L16.3994 26.6918C15.8906 27.2022 15.2173 27.5169 14.5003 27.5827L7.9713 28.1761ZM7.82851 31.3139H29.7482C30.6094 31.3139 31.3139 32.0185 31.3139 32.8796C31.3139 33.7407 30.6094 34.4453 29.7482 34.4453H7.82851C6.96738 34.4453 6.26282 33.7407 6.26282 32.8796C6.26282 32.0185 6.96738 31.3139 7.82851 31.3139Z" fill="#17A4FE"/>
<mask id="mask0_469_335" style="mask-type:luminance" maskUnits="userSpaceOnUse" x="6" y="3" width="26" height="32">
<path fill-rule="evenodd" clip-rule="evenodd" d="M18.7621 11.4654L9.96757 20.2599L9.55422 24.8881L14.2153 24.4638L22.9832 15.6865L18.7621 11.4654ZM28.1296 10.5354L23.9101 6.31742L20.8601 9.3674L25.0797 13.5885L28.1296 10.5354ZM7.9713 28.1761C7.92277 28.1808 7.8758 28.1824 7.82883 28.1824C7.41548 28.1824 7.01623 28.0195 6.72188 27.7236C6.39308 27.3948 6.22712 26.9376 6.26939 26.4757L6.86279 19.9452C6.92855 19.2297 7.24482 18.5549 7.75367 18.046L21.8387 3.95949C22.9378 2.85724 24.9325 2.91204 26.0911 4.06909L30.378 8.35596H30.3795C31.5789 9.55685 31.6258 11.4623 30.486 12.6053L16.3994 26.6918C15.8906 27.2022 15.2173 27.5169 14.5003 27.5827L7.9713 28.1761ZM7.82851 31.3139H29.7482C30.6094 31.3139 31.3139 32.0185 31.3139 32.8796C31.3139 33.7407 30.6094 34.4453 29.7482 34.4453H7.82851C6.96738 34.4453 6.26282 33.7407 6.26282 32.8796C6.26282 32.0185 6.96738 31.3139 7.82851 31.3139Z" fill="white"/>
</mask>
<g mask="url(#mask0_469_335)">
<rect width="37.5767" height="37.5767" fill="#17A4FE"/>
</g>
</svg>
