<svg width="19" height="21" viewBox="0 0 19 21" fill="none" xmlns="http://www.w3.org/2000/svg">
<path d="M9.76144 1.15376L11.4484 2.74869V2.74602L17.3285 8.30678L17.329 8.3072C17.4619 8.43275 17.5678 8.58411 17.6402 8.752C17.7125 8.91981 17.7499 9.10061 17.75 9.28335C17.75 9.28345 17.75 9.28355 17.75 9.28365V17.9865C17.75 18.3429 17.6084 18.6846 17.3564 18.9366C17.1044 19.1887 16.7626 19.3302 16.4063 19.3302H14.0625C13.7061 19.3302 13.3643 19.1887 13.1123 18.9366C12.8603 18.6846 12.7188 18.3429 12.7188 17.9865V14.0802C12.7188 13.6078 12.5311 13.1547 12.197 12.8207C11.863 12.4866 11.4099 12.299 10.9375 12.299H7.8125C7.34009 12.299 6.88702 12.4866 6.55297 12.8207C6.21892 13.1547 6.03125 13.6078 6.03125 14.0802V17.9865C6.03125 18.3429 5.88968 18.6846 5.63768 18.9366C5.38567 19.1887 5.04389 19.3302 4.6875 19.3302H2.34375C1.98752 19.3302 1.64587 19.1888 1.39389 18.937C1.14199 18.6852 1.00032 18.3438 1 17.9877L1 9.28491L1 9.28392C0.999819 9.10099 1.03699 8.91995 1.10923 8.75189C1.1814 8.58403 1.28703 8.43265 1.41968 8.307C1.41973 8.30696 1.41978 8.30691 1.41982 8.30687C1.41993 8.30677 1.42004 8.30667 1.42015 8.30657L8.98843 1.15388L8.98856 1.15376C9.093 1.05502 9.23128 1 9.375 1C9.51873 1 9.657 1.05502 9.76144 1.15376Z" stroke="white" stroke-width="2"/>
</svg>
