<svg width="19" height="23" viewBox="0 0 19 23" fill="none" xmlns="http://www.w3.org/2000/svg">
<path d="M3.46845 20.3527L3.46835 20.3526C1.9326 19.3385 1 17.9499 1 16.4286V16.0179C1 15.5089 1.1952 15.0279 1.53159 14.6789C1.86677 14.3311 2.31334 14.1429 2.77083 14.1429H16.2292C16.6867 14.1429 17.1332 14.3311 17.4684 14.6789C17.8048 15.0279 18 15.5089 18 16.0179V16.4286C18 17.9499 17.0674 19.3384 15.5317 20.3526C13.9952 21.3671 11.8638 22 9.5 22C7.13612 22 5.00404 21.367 3.46845 20.3527ZM12.6985 9.12192C11.8437 10.0089 10.6924 10.5 9.5 10.5C8.30763 10.5 7.15629 10.0089 6.30148 9.12192C5.44546 8.23372 4.95833 7.02144 4.95833 5.75C4.95833 4.47856 5.44546 3.26628 6.30148 2.37808C7.15629 1.49113 8.30763 1 9.5 1C10.6924 1 11.8437 1.49113 12.6985 2.37808C13.5545 3.26628 14.0417 4.47856 14.0417 5.75C14.0417 7.02144 13.5545 8.23372 12.6985 9.12192Z" stroke="#85C6EF" stroke-width="2"/>
</svg>
