<svg width="916" height="867" viewBox="0 0 916 867" fill="none" xmlns="http://www.w3.org/2000/svg">
<g clip-path="url(#clip0_886_1309)">
<path d="M2.04007 700.37C0.752314 699.018 0.0765627 697.359 0.0128126 695.394C-0.127438 688.823 1.03281 678.948 3.46807 665.743C5.90332 652.537 8.95058 638.822 12.5971 624.57C16.2436 610.318 20.1196 596.973 24.2124 584.52C28.3051 572.067 31.8751 563.302 34.9224 558.224C36.1464 556.259 39.7036 554.486 45.6324 552.891C51.5484 551.296 58.0892 550.199 65.2674 549.586C72.433 548.974 79.3307 548.999 85.9607 549.637C92.5907 550.275 97.219 551.819 99.8583 554.256C103.645 557.905 108.133 565.93 113.297 578.319C118.473 590.708 123.522 604.194 128.469 618.777C133.404 633.361 137.841 647.357 141.755 660.767C145.682 674.164 148.283 683.643 149.571 689.193C150.45 693.251 150.183 696.083 148.755 697.665C147.339 699.26 144.866 700.357 141.347 700.97C135.393 701.991 128.01 702.743 119.175 703.254C110.339 703.764 104.818 703.879 102.587 703.611C101.707 703.47 100.891 703.177 100.152 702.692C97.7163 701.199 95.3702 696.925 93.1007 689.844C90.8312 682.776 88.6127 677.915 86.458 675.274C85.1702 673.717 83.4872 672.798 81.3835 672.53L64.7447 672.428C59.5299 672.569 56.1512 674.291 54.5957 677.608C52.5684 681.87 50.2607 686.616 47.6979 691.822C45.1224 697.04 43.2354 700.242 42.0114 701.467C41.3994 702.207 40.4941 702.718 39.2701 702.986C36.4906 703.598 29.9499 703.751 19.6351 703.445C9.33308 703.164 3.45532 702.131 2.04007 700.37ZM67.7919 610.829C65.5607 613.202 63.3422 617.17 61.1492 622.758C58.9562 628.347 58.1529 632.021 58.7649 633.769C59.7849 636.742 64.1582 638.082 71.9102 637.775C79.6495 637.469 83.8697 635.594 84.5455 632.136C84.9535 630.044 82.9262 625.246 78.4637 617.77C73.9757 610.306 70.4184 607.983 67.7919 610.829Z" fill="white"/>
<path d="M248.893 556.808C248.957 554.983 251.698 553.541 257.117 552.495C262.523 551.449 268.528 550.9 275.12 550.875C281.712 550.837 287.908 551.372 293.684 552.444C299.473 553.529 302.864 555.289 303.884 557.726C305.3 561.312 306.307 567.538 306.881 576.405C307.454 585.273 307.556 594.918 307.187 605.342C306.817 615.766 305.899 625.986 304.445 636.002C302.992 646.017 300.939 653.941 298.312 659.759C292.626 672.211 284.326 682.367 273.399 690.214C262.472 698.061 249.977 702.539 235.914 703.611C218.191 704.835 201.693 700.485 186.406 690.558C171.118 680.645 160.536 667.465 154.645 651.006C152.682 645.66 151.279 637.979 150.438 627.964C149.596 617.948 149.201 607.792 149.265 597.508C149.328 587.225 149.94 577.86 151.088 569.439C152.235 561.018 153.931 555.685 156.162 553.452C158.049 551.628 162.015 550.403 168.033 549.803C174.051 549.191 180.298 549.063 186.75 549.395C193.214 549.739 198.964 550.492 204.001 551.679C209.037 552.865 211.561 554.371 211.561 556.195C211.421 561.477 210.988 568.865 210.248 578.383C209.509 587.888 209.317 597.368 209.687 606.809C210.057 616.251 211.485 624.582 213.946 631.791C216.419 639 220.831 642.942 227.18 643.619C234.078 644.435 239.038 641.271 242.047 634.126C245.056 626.981 247.019 618.497 247.937 608.647C248.855 598.797 249.161 588.896 248.855 578.944C248.536 568.992 248.562 561.618 248.893 556.808Z" fill="white"/>
<path d="M424.831 638.643C431.729 644.397 437.785 649.985 442.987 655.395C448.189 660.818 450.828 664.875 450.905 667.58C450.905 669.545 449.783 672.454 447.551 676.307C445.32 680.16 442.745 684.026 439.838 687.879C436.931 691.732 434.126 695.126 431.423 698.035C428.72 700.944 426.858 702.399 425.838 702.399C421.439 703.279 415.039 700.995 406.611 695.547C398.196 690.099 391.413 686.488 386.262 684.728C381.251 683.171 378.548 683.809 378.14 686.654C378.204 691.528 377.771 695.254 376.827 697.818C375.884 700.396 372.569 701.978 366.882 702.59C360.392 703.266 352.959 703.636 344.608 703.713C336.257 703.777 330.965 703.572 328.734 703.1C327.179 702.832 325.929 701.952 324.986 700.459C323.634 698.635 322.181 690.24 320.625 675.273C319.07 660.32 317.846 644.104 316.979 626.637C316.099 609.17 315.704 593.132 315.806 578.511C315.908 563.889 316.978 556.004 319.006 554.856C326.375 550.722 336.257 547.749 348.637 545.925C361.017 544.1 373.346 544.419 385.625 546.894C397.903 549.369 408.893 554.447 418.596 562.128C428.299 569.809 434.24 581.062 436.408 595.888C439.175 615.664 435.312 629.916 424.831 638.643ZM373.793 619.351C378.931 618.816 382.922 616.915 385.765 613.661C388.608 610.408 390.011 607.026 389.972 603.505C389.934 599.984 388.315 596.934 385.102 594.37C381.889 591.792 376.904 590.887 370.133 591.627C364.587 592.239 362.407 597.164 363.593 606.401C364.778 615.651 368.183 619.964 373.793 619.351Z" fill="white"/>
<path d="M612.741 637.125C609.222 658.445 598.894 675.643 581.745 688.708C564.597 701.773 544.668 706.405 521.935 702.616C500.018 698.967 482.767 688.504 470.183 671.242C457.598 653.979 453.008 634.866 456.387 613.878C459.562 594.383 468.984 578.026 484.641 564.782C500.298 551.551 518.518 545.848 539.275 547.672C564.303 549.841 583.76 559.347 597.67 576.201C611.568 593.056 616.591 613.368 612.741 637.125ZM554.499 628.487C555.442 622.669 554.346 617.706 551.196 613.61C548.047 609.514 543.47 606.963 537.452 605.942C531.765 604.998 526.767 606.235 522.432 609.642C518.097 613.061 515.535 617.374 514.719 622.592C513.635 628.882 515.394 634.458 519.997 639.294C524.6 644.129 530.274 646.145 537.044 645.328C541.71 644.856 545.599 643.032 548.71 639.842C551.821 636.678 553.746 632.889 554.499 628.487Z" fill="white"/>
<path d="M733.165 638.643C740.062 644.397 746.119 649.985 751.321 655.395C756.523 660.818 759.162 664.875 759.238 667.58C759.238 669.545 758.116 672.454 755.885 676.307C753.654 680.16 751.078 684.026 748.171 687.879C745.264 691.732 742.459 695.126 739.756 698.035C737.053 700.944 735.192 702.399 734.172 702.399C729.773 703.279 723.373 700.995 714.945 695.547C706.53 690.099 699.747 686.488 694.596 684.728C689.585 683.171 686.882 683.809 686.474 686.654C686.538 691.528 686.104 695.254 685.161 697.818C684.217 700.396 680.902 701.978 675.216 702.59C668.726 703.266 661.293 703.636 652.941 703.713C644.59 703.777 639.299 703.572 637.068 703.1C635.512 702.832 634.263 701.952 633.319 700.459C631.968 698.635 630.514 690.24 628.959 675.273C627.403 660.32 626.179 644.104 625.299 626.637C624.42 609.17 624.037 593.132 624.126 578.511C624.228 563.889 625.299 556.004 627.327 554.856C634.696 550.722 644.577 547.749 656.958 545.925C669.338 544.1 681.667 544.419 693.946 546.894C706.224 549.369 717.214 554.447 726.917 562.128C736.62 569.809 742.561 581.062 744.729 595.888C747.508 615.664 743.658 629.916 733.165 638.643ZM682.139 619.351C687.277 618.816 691.268 616.915 694.111 613.661C696.955 610.408 698.357 607.026 698.319 603.505C698.281 599.984 696.661 596.934 693.448 594.37C690.235 591.792 685.25 590.887 678.48 591.627C672.934 592.239 670.753 597.164 671.939 606.401C673.125 615.651 676.516 619.964 682.139 619.351Z" fill="white"/>
<path d="M767.972 700.37C766.684 699.018 766.009 697.359 765.945 695.394C765.805 688.823 766.965 678.948 769.4 665.743C771.835 652.537 774.883 638.822 778.529 624.57C782.188 610.318 786.052 596.973 790.144 584.52C794.237 572.067 797.807 563.302 800.855 558.224C802.066 556.259 805.636 554.486 811.552 552.891C817.468 551.296 824.009 550.199 831.187 549.586C838.352 548.974 845.25 548.999 851.88 549.637C858.51 550.275 863.138 551.819 865.778 554.256C869.564 557.905 874.052 565.93 879.216 578.319C884.38 590.708 889.442 604.194 894.389 618.777C899.323 633.361 903.76 647.357 907.674 660.767C911.601 674.164 914.202 683.643 915.49 689.193C916.37 693.251 916.102 696.083 914.674 697.665C913.259 699.26 910.785 700.357 907.266 700.97C901.312 701.991 893.93 702.743 885.094 703.254C876.271 703.764 870.737 703.879 868.506 703.611C867.626 703.47 866.81 703.177 866.071 702.692C863.636 701.199 861.29 696.925 859.02 689.844C856.751 682.776 854.545 677.915 852.377 675.274C851.09 673.717 849.407 672.798 847.303 672.53L830.664 672.428C825.449 672.569 822.071 674.291 820.515 677.608C818.488 681.87 816.18 686.616 813.617 691.822C811.042 697.04 809.155 700.242 807.931 701.467C807.319 702.207 806.414 702.718 805.19 702.986C802.41 703.598 795.869 703.751 785.554 703.445C775.252 703.164 769.387 702.131 767.972 700.37ZM833.711 610.829C831.48 613.202 829.262 617.17 827.069 622.758C824.876 628.347 824.072 632.021 824.684 633.769C825.704 636.742 830.078 638.082 837.83 637.775C845.569 637.469 849.789 635.594 850.465 632.136C850.873 630.044 848.846 625.246 844.383 617.77C839.908 610.306 836.351 607.983 833.711 610.829Z" fill="white"/>
<path d="M203.235 844.085V779.666H177.85V764.7H246.981V779.666H221.595V844.085H203.235Z" fill="white"/>
<path d="M278.371 844.991C271.869 844.991 266.106 843.626 261.082 840.908C256.059 838.191 252.093 834.465 249.186 829.731C246.279 825.011 244.826 819.614 244.826 813.566C244.826 807.442 246.279 802.019 249.186 797.286C252.093 792.565 256.059 788.852 261.082 786.173C266.106 783.494 271.869 782.141 278.371 782.141C284.797 782.141 290.535 783.481 295.597 786.173C300.658 788.852 304.624 792.539 307.492 797.235C310.361 801.93 311.802 807.365 311.802 813.566C311.802 819.614 310.361 824.998 307.492 829.731C304.624 834.452 300.658 838.178 295.597 840.908C290.535 843.639 284.797 844.991 278.371 844.991ZM278.371 830.484C281.316 830.484 283.956 829.808 286.302 828.443C288.648 827.078 290.497 825.138 291.861 822.599C293.225 820.073 293.901 817.062 293.901 813.579C293.901 810.032 293.225 806.995 291.861 804.507C290.497 802.007 288.648 800.08 286.302 798.728C283.956 797.362 281.316 796.686 278.371 796.686C275.426 796.686 272.774 797.362 270.441 798.728C268.095 800.093 266.233 802.019 264.831 804.507C263.428 807.008 262.74 810.032 262.74 813.579C262.74 817.062 263.441 820.06 264.831 822.599C266.233 825.138 268.095 827.078 270.441 828.443C272.787 829.795 275.426 830.484 278.371 830.484Z" fill="white"/>
<path d="M329.601 867C326.426 867 323.29 866.502 320.191 865.52C317.093 864.537 314.556 863.172 312.592 861.437L319.057 848.844C320.421 850.056 321.989 851 323.761 851.677C325.534 852.353 327.293 852.697 329.027 852.697C331.526 852.697 333.502 852.11 334.981 850.937C336.46 849.763 337.799 847.823 339.01 845.093L342.185 837.604L343.549 835.677L365.428 783.047H382.424L354.884 847.811C352.921 852.723 350.677 856.576 348.139 859.383C345.602 862.177 342.81 864.142 339.75 865.277C336.69 866.439 333.298 867 329.601 867ZM340.03 846.471L312.835 783.072H331.08L352.156 834.108L340.03 846.471Z" fill="white"/>
<path d="M442.26 844.991C437.045 844.991 432.035 844.366 427.24 843.116C422.446 841.865 418.647 840.296 415.855 838.408L421.745 825.7C424.537 827.435 427.84 828.864 431.665 829.948C435.477 831.046 439.238 831.594 442.936 831.594C447.016 831.594 449.91 831.11 451.606 830.114C453.302 829.132 454.156 827.767 454.156 826.031C454.156 824.602 453.493 823.518 452.167 822.804C450.841 822.089 449.081 821.54 446.901 821.158C444.708 820.775 442.311 820.405 439.71 820.022C437.109 819.639 434.483 819.129 431.831 818.491C429.179 817.853 426.769 816.883 424.576 815.595C422.383 814.306 420.623 812.571 419.31 810.376C417.984 808.182 417.321 805.349 417.321 801.866C417.321 798.013 418.43 794.607 420.661 791.659C422.893 788.712 426.118 786.39 430.352 784.68C434.585 782.983 439.646 782.128 445.537 782.128C449.693 782.128 453.926 782.588 458.236 783.494C462.545 784.399 466.128 785.726 468.997 787.462L463.106 800.055C460.161 798.319 457.19 797.12 454.207 796.482C451.223 795.844 448.329 795.512 445.537 795.512C441.61 795.512 438.741 796.048 436.918 797.094C435.107 798.153 434.202 799.519 434.202 801.177C434.202 802.696 434.865 803.818 436.191 804.584C437.517 805.337 439.264 805.949 441.457 806.396C443.65 806.855 446.047 807.251 448.648 807.582C451.249 807.927 453.875 808.437 456.527 809.113C459.167 809.789 461.576 810.759 463.718 812.01C465.873 813.26 467.633 814.957 468.984 817.113C470.348 819.269 471.024 822.089 471.024 825.559C471.024 829.336 469.889 832.692 467.62 835.601C465.35 838.51 462.086 840.806 457.815 842.465C453.569 844.162 448.38 844.991 442.26 844.991Z" fill="white"/>
<path d="M474.671 798.038V784.425H516.95V798.038H474.671ZM506.852 844.991C499.673 844.991 494.076 843.154 490.073 839.492C486.069 835.83 484.067 830.357 484.067 823.11V769.573H501.752V822.88C501.752 825.457 502.427 827.435 503.792 828.838C505.156 830.242 507.005 830.931 509.351 830.931C512.143 830.931 514.527 830.178 516.491 828.66L521.246 841.138C519.436 842.426 517.256 843.383 514.731 844.034C512.207 844.672 509.58 844.991 506.852 844.991Z" fill="white"/>
<path d="M558.311 844.991C551.808 844.991 546.045 843.626 541.022 840.908C535.998 838.191 532.033 834.465 529.126 829.731C526.219 825.011 524.765 819.614 524.765 813.566C524.765 807.442 526.219 802.019 529.126 797.286C532.033 792.565 535.998 788.852 541.022 786.173C546.045 783.494 551.808 782.141 558.311 782.141C564.737 782.141 570.474 783.481 575.536 786.173C580.598 788.852 584.563 792.539 587.432 797.235C590.301 801.93 591.741 807.365 591.741 813.566C591.741 819.614 590.301 824.998 587.432 829.731C584.563 834.452 580.598 838.178 575.536 840.908C570.474 843.639 564.737 844.991 558.311 844.991ZM558.311 830.484C561.256 830.484 563.895 829.808 566.241 828.443C568.587 827.078 570.436 825.138 571.8 822.599C573.164 820.073 573.84 817.062 573.84 813.579C573.84 810.032 573.164 806.995 571.8 804.507C570.436 802.019 568.587 800.08 566.241 798.728C563.895 797.362 561.256 796.686 558.311 796.686C555.365 796.686 552.713 797.362 550.38 798.728C548.034 800.093 546.173 802.019 544.77 804.507C543.368 807.008 542.679 810.032 542.679 813.579C542.679 817.062 543.38 820.06 544.77 822.599C546.173 825.138 548.034 827.078 550.38 828.443C552.713 829.795 555.365 830.484 558.311 830.484Z" fill="white"/>
<path d="M603.535 844.085V783.072H620.416V800.31L618.032 795.321C619.842 791.008 622.749 787.742 626.753 785.509C630.756 783.277 635.627 782.167 641.377 782.167V798.498C640.625 798.421 639.937 798.37 639.337 798.332C638.738 798.294 638.088 798.281 637.412 798.281C632.58 798.281 628.665 799.659 625.682 802.415C622.698 805.171 621.207 809.47 621.207 815.288V844.098H603.535V844.085Z" fill="white"/>
<path d="M681.616 844.991C674.668 844.991 668.56 843.626 663.307 840.908C658.054 838.191 654 834.465 651.118 829.731C648.25 825.011 646.809 819.614 646.809 813.566C646.809 807.442 648.224 802.019 651.055 797.286C653.885 792.565 657.761 788.852 662.67 786.173C667.579 783.494 673.138 782.141 679.334 782.141C685.301 782.141 690.682 783.404 695.488 785.943C700.282 788.482 704.082 792.106 706.874 796.827C709.666 801.547 711.069 807.199 711.069 813.783C711.069 814.459 711.031 815.237 710.954 816.105C710.878 816.973 710.801 817.789 710.725 818.542H661.216V808.22H701.455L694.66 811.282C694.66 808.105 694.022 805.349 692.734 803.002C691.447 800.654 689.674 798.83 687.405 797.503C685.135 796.176 682.496 795.512 679.474 795.512C676.453 795.512 673.788 796.176 671.48 797.503C669.172 798.83 667.375 800.68 666.1 803.066C664.812 805.451 664.174 808.258 664.174 811.512V814.229C664.174 817.56 664.914 820.481 666.38 823.02C667.859 825.559 669.937 827.486 672.615 828.8C675.292 830.127 678.454 830.79 682.075 830.79C685.327 830.79 688.183 830.306 690.631 829.31C693.079 828.328 695.335 826.848 697.375 824.883L706.785 835.09C703.993 838.267 700.474 840.704 696.241 842.401C692.008 844.149 687.137 844.991 681.616 844.991Z" fill="white"/>
<path d="M179.061 468.797C179.163 450.463 180.426 432.154 182.861 413.973C182.453 416.984 182.045 420.007 181.65 423.018C186.469 387.587 195.726 352.819 209.572 319.851C208.425 322.556 207.29 325.273 206.142 327.978C218.051 299.832 233.287 273.166 251.928 248.937C250.156 251.234 248.383 253.53 246.611 255.827C262.663 235.068 281.113 216.211 301.87 200.122C299.575 201.895 297.28 203.669 294.985 205.442C315.385 189.736 337.748 176.722 361.438 166.668C358.735 167.817 356.019 168.952 353.316 170.1C377.235 160.034 402.365 153.042 428.082 149.533C425.073 149.942 422.051 150.35 419.042 150.745C442.49 147.619 466.268 147.441 489.741 150.579C486.732 150.171 483.711 149.763 480.702 149.367C501.535 152.225 521.897 157.712 541.29 165.852C538.587 164.704 535.871 163.568 533.168 162.42C552.663 170.675 570.959 181.469 587.738 194.368C585.443 192.594 583.148 190.821 580.853 189.047C599.672 203.618 616.413 220.689 630.999 239.496C629.227 237.199 627.454 234.903 625.682 232.606C643.494 255.712 657.978 281.217 669.313 308.087C668.165 305.382 667.03 302.665 665.883 299.96C678.939 331.104 687.749 363.945 692.301 397.399C691.893 394.388 691.485 391.364 691.09 388.353C693.64 407.44 694.813 426.693 694.494 445.946C694.354 454.584 698.383 463.936 704.452 470.009C710.355 475.917 720.019 480.357 728.498 479.974C737.296 479.578 746.412 476.695 752.545 470.009C758.703 463.285 762.349 455.222 762.503 445.946C763.063 411.982 759.149 377.674 751.589 344.59C744.04 311.519 732.043 279.29 716.577 249.116C701.43 219.592 681.859 191.88 658.909 167.906C646.541 154.994 632.899 143.613 618.568 132.947C606.468 123.939 593.565 116.003 580.024 109.356C563.22 101.101 545.586 94.109 527.456 89.3754C508.726 84.4888 489.257 81.7074 469.953 80.6229C453.123 79.6787 436.217 80.4187 419.514 82.6133C400.045 85.1778 380.945 88.6865 362.177 94.5683C327.408 105.464 293.85 121.847 264.614 143.664C248.677 155.555 233.568 168.289 219.874 182.744C206.142 197.226 193.673 213.047 182.376 229.493C160.982 260.637 144.751 295.494 132.957 331.346C121.138 367.275 114.495 405.016 112.009 442.731C111.435 451.407 111.142 460.083 111.091 468.784C111.04 477.473 114.916 486.711 121.049 492.848C126.952 498.755 136.617 503.195 145.095 502.812C153.893 502.417 163.009 499.533 169.142 492.848C175.224 486.175 179.01 478.035 179.061 468.797Z" fill="white"/>
<path d="M368.884 494.047C408.779 490.755 448.673 487.476 488.568 484.184C499.75 483.266 510.945 482.347 522.126 481.416C524.868 481.518 527.43 480.944 529.815 479.693C532.288 478.889 534.43 477.512 536.241 475.559C539.696 472.102 542.31 466.411 542.08 461.448C541.851 456.281 540.155 450.935 536.241 447.337C532.53 443.918 527.354 441.06 522.139 441.493C482.244 444.785 442.349 448.064 402.455 451.356C391.273 452.275 380.078 453.193 368.897 454.125C366.155 454.023 363.593 454.597 361.208 455.847C358.735 456.651 356.593 458.029 354.782 459.981C351.327 463.439 348.713 469.129 348.943 474.092C349.172 479.259 350.868 484.605 354.782 488.203C358.493 491.61 363.669 494.481 368.884 494.047Z" fill="#FFD02A"/>
<path d="M354.527 473.939C339.278 441.953 345.883 400.831 370.388 375.25C394.894 349.668 435.668 341.299 468.245 355.193C500.834 369.075 523.07 404.276 521.616 439.695" fill="white"/>
<path d="M718.477 169.603C718.043 170.738 717.559 171.887 717.074 173.01C715.06 177.756 712.739 182.349 710.164 186.789L710.138 186.815V186.84C705.943 194.062 700.996 200.849 695.386 207.025C692.365 210.342 689.152 213.48 685.735 216.441L482.015 121.642C482.18 107.901 484.909 94.3514 489.754 81.5671C495.071 67.5451 502.925 54.4418 512.729 43.0354C529.547 23.4506 552.038 8.82903 577.206 2.94722C630.387 -9.49263 690.312 18.3854 715.085 67.0986C731.086 98.6001 731.431 136.851 718.477 169.603Z" fill="white"/>
<path d="M648.262 220.153C669.223 224.861 689.84 231.024 709.947 238.603C715.633 240.746 721.282 243.017 726.892 245.378C725.298 244.701 723.717 244.038 722.123 243.362C741.197 251.451 759.749 260.778 777.573 271.355C782.648 274.353 787.658 277.466 792.605 280.656C796.838 283.386 803.201 283.986 807.982 282.672C812.61 281.396 817.621 277.811 819.903 273.498C822.351 268.867 823.575 263.253 821.918 258.111C820.273 253.033 817.264 249.09 812.75 246.181C794.939 234.686 776.349 224.415 757.122 215.484C736.518 205.902 715.302 197.558 693.589 190.872C682.139 187.351 670.562 184.276 658.883 181.647C653.681 180.474 648.186 180.92 643.507 183.663C639.363 186.087 635.423 190.834 634.339 195.593C633.179 200.709 633.434 206.438 636.354 210.98C639.082 215.241 643.188 219.018 648.262 220.153Z" fill="white"/>
<path d="M718.719 169.731L717.074 172.997L710.164 186.776L710.138 186.802V186.827L695.386 207.012L489.754 81.58C495.071 67.558 502.925 54.4547 512.729 43.0483L718.477 169.603L718.719 169.731Z" fill="#FFD02A"/>
</g>
<defs>
<clipPath id="clip0_886_1309">
<rect width="916" height="867" fill="white"/>
</clipPath>
</defs>
</svg>
