<svg width="23" height="21" viewBox="0 0 23 21" fill="none" xmlns="http://www.w3.org/2000/svg">
<path d="M18.75 0L13.5416 5.20833V15.1042L18.75 10.4167V0Z" fill="#73C4F7"/>
<path d="M22.3646 4.89584C21.875 4.64584 21.3646 4.43751 20.8333 4.26043V16.7917C19.6458 16.3646 18.4271 16.1458 17.1875 16.1458C15.2083 16.1458 13.25 16.7083 11.4583 17.7917V5.18751C9.77083 4.21876 7.82292 3.64584 5.72917 3.64584C3.86458 3.64584 2.10417 4.10418 0.552083 4.89584C0.208333 5.06251 0 5.42709 0 5.81251V18.3958C0 19 0.489583 19.4271 1.04167 19.4271C1.20833 19.4271 1.375 19.3854 1.54167 19.3021C2.80208 18.6458 4.21875 18.2292 5.72917 18.2292C7.88542 18.2292 9.875 19.0833 11.4583 20.3125C13.0417 19.0833 15.0312 18.2292 17.1875 18.2292C18.6979 18.2292 20.1146 18.6458 21.375 19.3125C21.5417 19.3958 21.7083 19.4375 21.875 19.4375C22.4167 19.4375 22.9167 19.0104 22.9167 18.4063V5.81251C22.9167 5.42709 22.7083 5.06251 22.3646 4.89584ZM9.375 16.7917C8.1875 16.3646 6.96875 16.1458 5.72917 16.1458C4.48958 16.1458 3.27083 16.3646 2.08333 16.7917V6.46876C3.23958 5.97918 4.45833 5.72918 5.72917 5.72918C6.97917 5.72918 8.21875 5.98959 9.375 6.47918V16.7917Z" fill="#73C4F7"/>
</svg>
