<svg width="326" height="305" viewBox="0 0 326 305" fill="none" xmlns="http://www.w3.org/2000/svg">
<g clip-path="url(#clip0_231_593)">
<path d="M208.21 234.483C211.499 237.117 237.994 198.826 237.994 198.826C237.994 198.826 177.487 147.903 144.544 146.969C144.544 146.969 153.806 186.857 118.081 143.167C118.081 143.167 65.9939 141.951 49.3712 163.739C32.7485 185.526 19.782 207.113 19.782 207.113L58.471 234.483L68.3971 226.06L68.3863 245.263L70.0172 274.045C70.0172 274.045 193.839 273.502 192.068 272.416C190.297 271.33 190.01 218.604 190.01 218.604L208.21 234.483Z" fill="#17A4FE"/>
<path d="M133.408 169.234H144.333C153.098 169.234 160.2 162.088 160.2 153.279V129.26C160.2 120.446 153.093 113.305 144.333 113.305H133.408C124.643 113.305 117.541 120.451 117.541 129.26V153.279C117.541 162.093 124.643 169.234 133.408 169.234Z" fill="#FED444"/>
<path d="M146.164 148.598C167.639 148.598 185.047 126.959 185.047 100.266C185.047 73.5723 167.639 51.933 146.164 51.933C124.689 51.933 107.281 73.5723 107.281 100.266C107.281 126.959 124.689 148.598 146.164 148.598Z" fill="#FED444"/>
<path d="M114.339 50.722L117.698 54.6375L168.857 52.677C168.857 52.677 169.764 48.0067 171.735 47.2519C173.706 46.497 172.086 41.6149 172.086 41.6149L149.609 37.2106L140.601 37.2432C140.601 37.2432 131.075 38.6715 130.519 39.3286C129.963 39.9857 120.782 42.1579 119.162 43.2441C117.541 44.3302 114.339 50.722 114.339 50.722Z" fill="#FED444"/>
<path d="M144.085 96.1708C145.149 97.5557 144.231 99.9451 142.519 100.255C140.807 100.564 139.116 98.6526 139.629 96.98C140.142 95.3074 142.605 94.6774 143.847 95.8993" fill="black"/>
<path d="M151.149 86.6945C154.162 93.1352 157.176 99.5759 160.184 106.017C157.262 106.837 154.34 107.651 151.419 108.471" fill="#F2B814"/>
<path d="M135.341 113.69C138.668 117.144 143.021 119.566 147.703 120.549C152.456 121.548 157.408 121.011 161.869 119.11C164.369 118.04 166.664 116.552 168.673 114.716C169.445 114.01 168.295 112.859 167.528 113.565C160.794 119.729 150.744 121.168 142.594 117.052C140.315 115.9 138.258 114.385 136.486 112.539C135.763 111.784 134.618 112.935 135.341 113.69Z" fill="black"/>
<path d="M130.929 72.3576C134.828 70.3483 139.613 70.4134 143.469 72.5042C144.387 73.0038 145.203 71.5973 144.285 71.0977C139.905 68.7191 134.542 68.6702 130.114 70.9511C129.179 71.429 130 72.8355 130.929 72.3576Z" fill="black"/>
<path d="M156.76 76.827C160.599 74.1117 165.784 73.5632 170.067 75.5617C171.006 76.0015 171.833 74.595 170.882 74.1551C166.097 71.9177 160.281 72.3522 155.944 75.4205C155.091 76.0178 155.901 77.4352 156.76 76.827Z" fill="black"/>
<path d="M132.458 83.8868C136.297 81.1715 141.482 80.623 145.764 82.6215C146.704 83.0614 147.53 81.6548 146.58 81.215C141.795 78.9775 135.979 79.412 131.642 82.4803C130.789 83.0777 131.599 84.495 132.458 83.8868Z" fill="black"/>
<path d="M124.729 48.2889C124.74 48.2836 124.756 48.2783 124.761 48.2836C124.756 48.2889 124.756 48.2889 124.751 48.2889C124.74 48.2889 124.729 48.2889 124.729 48.2889Z" fill="white"/>
<path d="M124.81 48.2727C124.837 48.2619 124.853 48.2565 124.875 48.2565C124.859 48.2673 124.843 48.2673 124.832 48.2727C124.827 48.2727 124.821 48.278 124.81 48.2727Z" fill="white"/>
<path d="M170.758 95.693C169.683 94.8512 167.901 95.1933 167.21 96.3718C166.518 97.5502 167.08 99.2826 168.333 99.8257C169.343 100.26 170.655 99.8691 171.206 98.9133C171.757 97.9575 171.676 96.198 170.704 95.6875" fill="black"/>
<path d="M165.255 50.9501C166.459 51.3085 167.658 51.6995 168.835 52.1503C169.062 57.0758 169.154 62.7563 169.386 67.6873C149.804 63.56 135.352 64.1628 118.081 68.7734L117.606 63.674C119.016 60.8936 119.037 57.456 117.698 54.6429C119.081 53.8663 120.512 53.1875 121.975 52.5901C122.742 52.2752 123.52 51.9982 124.297 51.7104C124.297 51.7104 124.297 51.7104 124.308 51.7104L124.314 51.7049C124.33 51.6995 124.335 51.6995 124.346 51.6941C124.357 51.6832 124.368 51.6832 124.378 51.6832C124.389 51.6724 124.4 51.6724 124.422 51.6724L124.427 51.6669C124.449 51.6561 124.47 51.6452 124.492 51.6452C124.497 51.6398 124.508 51.6398 124.508 51.6398C124.524 51.6343 124.53 51.6343 124.546 51.6343C124.767 51.5583 124.989 51.4877 125.205 51.4171C125.653 51.2759 126.101 51.1402 126.555 51.0098C130.119 49.9834 133.775 49.2992 137.464 48.881C141.131 48.4629 144.576 48.3271 148.567 48.4574C152.342 48.5823 156.112 48.9625 159.827 49.6522C159.865 49.6522 159.941 49.6739 160.016 49.6847L160.022 49.6902C160.043 49.6956 160.07 49.6956 160.086 49.701C160.092 49.6956 160.097 49.701 160.097 49.701C160.135 49.7065 160.167 49.7119 160.184 49.7173C160.437 49.7662 160.697 49.8151 160.951 49.8748C161.415 49.9671 161.879 50.0758 162.344 50.1844C163.3 50.4125 164.283 50.6677 165.255 50.9501Z" fill="#17A4FE"/>
<path d="M183.719 39.9422C184.572 43.1517 180.657 45.5032 177.39 46.0191C175.381 46.334 173.096 46.5893 171.314 47.4419C164.617 44.7809 157.305 43.5807 150.144 43.2332C142.297 42.8476 134.272 43.4884 126.668 45.5086C122.688 46.573 118.767 47.9958 115.171 50.016C114.852 50.1952 114.56 50.4342 114.339 50.722C112.946 49.7445 111.315 49.1091 109.624 48.9353C107.583 48.7235 105.504 49.1308 103.489 48.7561C101.47 48.3868 99.4012 46.8011 99.5362 44.7483C99.655 42.7879 101.605 41.5334 103.333 40.6156C110.883 36.5807 118.433 32.5457 125.982 28.5053C130.254 26.2245 134.715 23.8947 139.554 23.7155C143.561 23.5743 147.46 24.9428 151.246 26.2896C160.454 29.5752 169.672 32.8607 178.875 36.1516C180.889 36.8685 183.168 37.8677 183.719 39.9422Z" fill="#17A4FE"/>
<path d="M151.375 24.6333C151.186 24.1446 151.019 23.6504 150.884 23.1399C150.819 22.901 150.765 22.6674 150.711 22.4285C150.679 22.2819 150.652 22.1298 150.625 21.9777C150.609 21.8909 150.506 21.3641 150.587 21.7768C150.663 22.1678 150.549 21.3967 150.544 21.2989C150.522 21.0274 150.506 20.7504 150.501 20.4789C150.49 19.9304 150.506 19.3819 150.549 18.8388C150.565 18.6271 150.538 17.9265 150.56 18.6108C150.555 18.3827 150.636 18.1111 150.679 17.8885C150.781 17.3454 150.911 16.8078 151.068 16.2756C151.208 15.8031 151.365 15.3307 151.543 14.8745C151.586 14.7659 151.624 14.6301 151.678 14.5269C151.392 15.0537 151.613 14.6899 151.678 14.5378C151.791 14.2826 151.916 14.0327 152.04 13.7829C152.537 12.8054 153.12 11.8931 153.768 11.0133C153.978 10.7255 153.482 11.3554 153.714 11.0893C153.795 10.997 153.87 10.8938 153.951 10.8015C154.13 10.5843 154.313 10.3725 154.502 10.1661C154.88 9.75342 155.28 9.35698 155.69 8.98227C155.874 8.81392 156.063 8.651 156.252 8.49351C156.29 8.46636 156.538 8.25456 156.538 8.25999C156.544 8.26543 156.041 8.62928 156.468 8.31973C156.922 7.98846 157.381 7.67349 157.856 7.38566C158.288 7.125 158.731 6.88605 159.185 6.66882C159.309 6.60909 159.438 6.54935 159.568 6.48961C160.178 6.19636 159.249 6.60366 159.638 6.45703C159.93 6.34842 160.221 6.22894 160.518 6.12576C161.674 5.72389 162.851 5.46866 164.056 5.25686C164.434 5.19169 163.618 5.30031 164.002 5.26229C164.142 5.25143 164.277 5.22971 164.418 5.21885C164.731 5.18626 165.044 5.16454 165.352 5.14825C165.978 5.11566 166.61 5.1048 167.237 5.12653C167.798 5.14282 168.355 5.18083 168.916 5.24057C169.057 5.25686 169.197 5.27315 169.337 5.28944C168.792 5.24057 169.17 5.26229 169.289 5.28401C169.634 5.33832 169.986 5.39806 170.331 5.46322C171.508 5.69131 172.675 6.00629 173.809 6.40272C174.111 6.5059 174.409 6.61995 174.706 6.73399C174.835 6.78287 174.97 6.8426 175.1 6.89148C175.456 7.02724 174.733 6.72313 175.078 6.88062C175.656 7.15215 176.234 7.41282 176.801 7.71693C177.892 8.29801 178.945 8.95511 179.939 9.68825C180.052 9.76971 180.165 9.8566 180.279 9.94349C180.203 9.88918 179.895 9.63394 180.268 9.93806C180.489 10.1173 180.711 10.2965 180.927 10.4757C181.413 10.8884 181.883 11.312 182.342 11.7519C183.206 12.5828 184.021 13.468 184.788 14.3966C185.015 14.6681 185.236 14.9451 185.452 15.2275C185.15 14.8365 185.382 15.1352 185.442 15.2166C185.566 15.3904 185.696 15.5587 185.82 15.7325C186.214 16.281 186.592 16.8404 186.954 17.4106C187.699 18.5836 188.385 19.8001 189.006 21.0491C189.308 21.6573 189.6 22.2764 189.87 22.8955C189.929 23.0259 189.983 23.1616 190.043 23.292C190.113 23.4603 190.102 23.4223 189.994 23.1779C190.038 23.2757 190.075 23.3788 190.119 23.4766C190.237 23.7753 190.356 24.074 190.475 24.3781C190.988 25.714 191.431 27.0771 191.825 28.451C192.192 29.7327 193.634 30.6613 194.952 30.2377C196.248 29.8141 197.118 28.4728 196.729 27.0934C193.683 16.4439 187.132 6.41358 176.65 2.05279C171.622 -0.037995 165.86 -0.613641 160.572 0.782029C155.48 2.12882 151.143 5.41435 148.384 9.91633C145.494 14.6355 144.43 20.7559 146.472 26.0127C146.952 27.2509 148.195 28.2501 149.599 27.7994C150.798 27.3866 151.894 25.9638 151.375 24.6333Z" fill="#FED444"/>
<path d="M203.496 34.756C203.512 33.2354 202.885 31.8452 201.902 30.721C200.909 29.5915 199.499 28.9778 198.03 28.8257C196.583 28.6791 195.244 29.2819 194.147 30.178C193.683 30.5581 193.294 31.0577 192.975 31.5736C192.668 32.0732 192.419 32.6543 192.295 33.23C192.111 34.0717 192.101 34.8211 192.263 35.6629C192.371 36.2277 192.592 36.8033 192.916 37.2758C193.683 38.3999 194.758 39.2145 196.075 39.5838C197.415 39.9585 198.77 39.801 200.023 39.2254C201.233 38.6715 202.054 37.5473 202.48 36.3146C202.615 35.929 202.648 35.5054 202.696 35.1035C202.718 34.8972 202.729 34.6908 202.712 34.4844C202.642 33.6101 202.464 32.9476 202.102 32.1601C201.524 30.9002 200.32 29.9227 198.997 29.5589C198.36 29.3851 197.609 29.4828 197.042 29.8141C196.513 30.1237 196.01 30.7319 195.875 31.3401C195.568 32.6923 196.28 34.1043 197.652 34.4844C197.766 34.517 197.868 34.555 197.976 34.5985C197.776 34.5116 197.571 34.4247 197.371 34.3432C197.539 34.4193 197.69 34.5116 197.836 34.6202C197.663 34.4844 197.496 34.3541 197.323 34.2183C197.501 34.3595 197.652 34.517 197.793 34.6962C197.658 34.5225 197.528 34.3541 197.393 34.1803C197.544 34.3867 197.663 34.6039 197.76 34.8374C197.674 34.6365 197.587 34.4301 197.506 34.2292C197.609 34.4899 197.679 34.756 197.717 35.0329C197.685 34.8048 197.658 34.5822 197.625 34.3541C197.652 34.6093 197.652 34.8592 197.625 35.1144C197.658 34.8863 197.685 34.6637 197.717 34.4356C197.685 34.6637 197.631 34.8809 197.544 35.0927C197.631 34.8917 197.717 34.6854 197.798 34.4844C197.717 34.6745 197.62 34.8483 197.496 35.0166C197.631 34.8429 197.76 34.6745 197.895 34.5007C197.776 34.6528 197.647 34.7831 197.501 34.9026C197.674 34.7668 197.841 34.6365 198.014 34.5007C197.847 34.6311 197.663 34.7397 197.469 34.8266C197.668 34.7397 197.874 34.6528 198.073 34.5713C197.852 34.6637 197.631 34.7234 197.398 34.7614C197.625 34.7288 197.847 34.7017 198.073 34.6691C197.787 34.7071 197.506 34.7071 197.22 34.6745C197.447 34.7071 197.668 34.7342 197.895 34.7668C197.609 34.7234 197.334 34.6528 197.064 34.5442C197.263 34.6311 197.469 34.718 197.668 34.7994C197.425 34.6962 197.199 34.5659 196.988 34.4084C197.161 34.5442 197.328 34.6745 197.501 34.8103C197.312 34.6637 197.145 34.5007 196.999 34.3107C197.134 34.4844 197.263 34.6528 197.398 34.8266C197.269 34.6528 197.161 34.4681 197.074 34.2672C197.161 34.4681 197.247 34.6745 197.328 34.8754C197.253 34.6799 197.199 34.4844 197.166 34.2781C197.199 34.5062 197.226 34.7288 197.258 34.9569C197.226 34.7017 197.226 34.4464 197.253 34.1912C197.22 34.4193 197.193 34.6419 197.161 34.87C197.199 34.5876 197.274 34.3107 197.382 34.0446C197.296 34.2455 197.209 34.4519 197.128 34.6528C197.253 34.3595 197.409 34.0934 197.604 33.8436C197.469 34.0174 197.339 34.1858 197.204 34.3595C197.366 34.1532 197.55 33.9685 197.755 33.8056C197.582 33.9414 197.415 34.0717 197.242 34.2075C197.447 34.05 197.668 33.9142 197.901 33.8056C197.701 33.8925 197.496 33.9794 197.296 34.0609C197.539 33.9577 197.782 33.8925 198.041 33.8545C197.814 33.8871 197.593 33.9142 197.366 33.9468C197.593 33.9251 197.814 33.9251 198.041 33.9522C197.814 33.9197 197.593 33.8925 197.366 33.8599C197.647 33.8979 197.911 33.974 198.176 34.0826C197.976 33.9957 197.771 33.9088 197.571 33.8273C197.83 33.9414 198.073 34.0826 198.306 34.2564C198.133 34.1206 197.965 33.9903 197.793 33.8545C198.041 34.05 198.262 34.2672 198.462 34.517C198.327 34.3432 198.198 34.1749 198.063 34.0011C198.252 34.2509 198.414 34.5225 198.538 34.8103C198.451 34.6093 198.365 34.403 198.284 34.202C198.392 34.4681 198.462 34.7397 198.5 35.0221C198.468 34.794 198.441 34.5713 198.408 34.3432C198.424 34.4844 198.43 34.6256 198.43 34.7723C198.424 35.4239 198.722 36.1191 199.175 36.5807C199.618 37.026 200.336 37.3572 200.974 37.3301C202.345 37.2486 203.479 36.1897 203.496 34.756Z" fill="#FED444"/>
<path d="M199.613 52.0145C198.603 49.5653 197.577 47.0509 197.474 44.4062C197.377 41.756 198.397 38.8995 200.655 37.5364C203.323 35.929 206.876 36.8685 209.344 38.7692C211.218 40.2137 212.763 42.3588 212.73 44.7374C212.676 48.5552 208.874 51.0641 205.531 52.8671C203.587 53.9152 200.973 54.8818 199.397 53.3341" fill="#FED444"/>
<path d="M188.828 217.648V178.771C188.828 178.771 196.118 200.352 188.828 217.648Z" fill="#126593"/>
<path d="M73.2575 217.648V178.771C73.2575 178.771 65.9669 200.352 73.2575 217.648Z" fill="#126593"/>
<path d="M145.624 122.531C145.241 122.145 157.505 124.703 161.825 121.445C161.825 121.445 151.564 128.505 145.624 122.531Z" fill="#F2B814"/>
<path d="M132.144 251.503C131.653 251.481 131.14 251.465 130.702 251.59C129.666 251.899 129.612 252.85 129.709 253.632C130.265 258.166 131.307 262.706 132.83 267.208C132.992 267.692 133.181 268.197 133.694 268.577C134.521 269.196 135.881 269.267 137.07 269.294C143.89 269.429 150.706 269.571 157.527 269.706C159.26 269.739 161.096 270.401 162.727 269.81C164.526 269.158 169.116 266.953 169.926 266.443C170.758 265.921 168.473 267.284 168.479 266.54C168.495 265.443 168.274 264.33 167.96 263.233C166.464 257.976 164.337 252.269 154.772 251.932C147.222 251.666 139.71 251.823 132.144 251.503Z" fill="#FED444"/>
<path d="M140.764 101.08C145.387 101.08 149.134 97.3115 149.134 92.6627C149.134 88.0139 145.387 84.2452 140.764 84.2452C136.14 84.2452 132.393 88.0139 132.393 92.6627C132.393 97.3115 136.14 101.08 140.764 101.08Z" stroke="#17A4FE" stroke-width="2.8346" stroke-miterlimit="10"/>
<path d="M143.787 258.064C145.509 256.749 144.916 253.049 142.463 249.801C140.01 246.552 136.625 244.985 134.903 246.3C133.181 247.615 133.773 251.315 136.227 254.563C138.68 257.812 142.065 259.379 143.787 258.064Z" fill="#F2B814"/>
<path d="M168.036 101.352C172.659 101.352 176.407 97.5831 176.407 92.9342C176.407 88.2854 172.659 84.5168 168.036 84.5168C163.413 84.5168 159.665 88.2854 159.665 92.9342C159.665 97.5831 163.413 101.352 168.036 101.352Z" stroke="#17A4FE" stroke-width="2.8346" stroke-miterlimit="10"/>
<path d="M107.135 94.2701C114.625 90.952 123.082 89.9311 131.14 91.3702C131.21 90.838 131.286 90.3058 131.356 89.7682C131.107 89.7573 130.859 89.7519 130.616 89.741C129.574 89.703 129.574 91.3322 130.616 91.3702C130.864 91.3811 131.113 91.3865 131.356 91.3974C132.252 91.4299 132.485 89.9582 131.572 89.7953C123.045 88.2747 114.236 89.3446 106.319 92.8582C105.363 93.2872 106.19 94.6937 107.135 94.2701Z" fill="#17A4FE"/>
<path d="M150.414 92.7116C151.651 91.1639 153.503 90.1701 155.491 90.1429C157.483 90.1158 159.363 91.039 160.643 92.5541C161.15 93.1569 162.009 92.288 161.501 91.6906C160.027 89.942 157.775 88.8884 155.491 88.921C153.206 88.9536 150.981 90.056 149.555 91.8481C149.069 92.4509 149.928 93.3253 150.414 92.7116Z" fill="#17A4FE"/>
<path d="M22.493 208.878C13.6416 219.609 7.64169 230.801 2.68404 243.819C0.464447 249.646 -1.30151 256.298 1.29072 261.962C5.18447 270.483 16.3311 272.134 25.6469 272.356C50.2893 272.959 74.9695 271.759 99.4391 268.767C99.0826 260.882 98.7316 252.991 98.3752 245.106C81.5959 243.65 64.822 242.195 48.0427 240.739C50.8023 237.41 52.6763 235.559 55.4359 232.23" fill="#FED444"/>
<path d="M234.192 203.99C243.167 215.047 256.944 240.625 256.615 240.017C253.661 234.532 263.246 252.633 260.654 258.297C256.76 266.817 242.968 268.332 233.652 268.561C209.009 269.163 184.135 271.607 159.665 268.615C160.022 260.73 159.309 260.751 159.665 252.866C176.445 251.411 207.152 240.202 223.931 238.746C221.171 235.417 216.97 233.386 214.21 230.057" fill="#FED444"/>
<path d="M18.3076 241.185C25.5929 238.116 33.753 237.296 41.4973 238.931C43.7277 239.404 45.9095 240.072 48.0265 240.919C48.6043 241.147 49.2848 240.669 49.4414 240.115C49.6196 239.458 49.22 238.926 48.6421 238.692C40.9626 235.618 32.3705 235.01 24.313 236.835C22.0502 237.345 19.8414 238.062 17.7028 238.964C17.1303 239.203 16.7199 239.729 16.9035 240.386C17.0439 240.924 17.7352 241.429 18.3076 241.185Z" fill="#F2B814"/>
<path d="M224.881 239.442C232.674 235.629 241.942 235.515 249.81 239.17C250.372 239.431 251.047 239.328 251.382 238.757C251.673 238.258 251.533 237.443 250.971 237.177C242.298 233.147 232.318 233.245 223.72 237.449C222.392 238.1 223.558 240.088 224.881 239.442Z" fill="#F2B814"/>
<path d="M94.3652 207.869L91.4152 211.044L149.692 265.811L152.642 262.637L94.3652 207.869Z" fill="black"/>
<path d="M97.5597 245.263C102.312 243.552 108.258 241.342 113.005 239.632C115.57 238.708 118.162 237.774 120.857 237.367C125.939 236.601 131.091 237.725 136.103 238.844C137.718 239.203 139.37 239.583 140.758 240.484C142.146 241.386 143.237 242.939 143.124 244.601C143.01 246.257 141.336 247.777 139.743 247.321C141.849 247.636 143.113 250.178 142.573 252.252C142.027 254.321 140.132 255.809 138.101 256.45C136.07 257.091 133.894 257.031 131.766 256.961C133.77 256.923 135.644 258.644 135.79 260.653C135.93 262.663 134.321 264.634 132.333 264.884C134.283 265.177 134.494 268.267 133.003 269.565C131.512 270.863 129.331 270.836 127.365 270.744C117.153 270.26 106.94 269.777 96.728 269.299" fill="#FED444"/>
<path d="M117.271 249.635C124.649 249.265 132.036 249.227 139.408 248.858C140.877 248.788 140.888 246.474 139.408 246.55C132.031 246.919 124.643 246.957 117.271 247.327C115.803 247.403 115.797 249.711 117.271 249.635Z" fill="#F2B814"/>
<path d="M116.985 257.96C122.029 257.96 127.073 258.09 132.117 258.09C133.597 258.09 133.597 255.782 132.117 255.782C127.073 255.782 122.029 255.652 116.985 255.652C115.511 255.652 115.505 257.96 116.985 257.96Z" fill="#F2B814"/>
<path d="M114.793 265.883C120.479 265.992 126.161 266.128 131.847 266.236C133.327 266.263 133.327 263.955 131.847 263.928C126.161 263.82 120.479 263.684 114.793 263.575C113.318 263.548 113.318 265.856 114.793 265.883Z" fill="#F2B814"/>
<path d="M320.87 237.932H297.107V284.635H320.87V237.932Z" fill="#17A4FE"/>
<path d="M323.149 286.932H294.818V235.635H323.149V286.932ZM299.386 282.338H318.58V240.229H299.386V282.338Z" fill="#FED444"/>
<path d="M221.501 291.152L163.175 271.602L90.0206 273.084L142.114 299.298" fill="#FED444"/>
<path d="M221.501 291.152L163.175 271.602L90.0206 273.084L142.114 299.298" stroke="#17A4FE" stroke-width="8.5039" stroke-miterlimit="10"/>
<path d="M221.501 291.152H142.114V299.298H221.501V291.152Z" fill="#FED444" stroke="#17A4FE" stroke-width="8.5039" stroke-miterlimit="10"/>
<path d="M106.74 99.1794L108.766 59.5359H180.727L175.85 70.0713L117.196 77.4026L116.85 99.1794H106.74Z" fill="black"/>
<path d="M107.281 91.5766C102.507 91.5766 98.6398 95.4649 98.6398 100.266C98.6398 105.066 103.047 108.955 107.821 108.955" fill="#FED444"/>
<path d="M183.967 91.5766C188.741 91.5766 192.608 95.4649 192.608 100.266C192.608 105.066 188.741 108.955 183.967 108.955" fill="#FED444"/>
<path d="M295.52 235.488H294.677V286.536H295.52V235.488Z" fill="#17A4FE"/>
<path d="M99.9899 271.602L143.194 291.152" stroke="#17A4FE" stroke-width="8.5039" stroke-miterlimit="10"/>
<path d="M149.961 266.611L151.991 264.58L154.022 262.549L154.756 265.335L155.491 268.121L152.726 267.366L149.961 266.611Z" fill="black"/>
<path d="M301.833 245.535C302.802 245.535 303.588 244.744 303.588 243.77C303.588 242.795 302.802 242.005 301.833 242.005C300.864 242.005 300.078 242.795 300.078 243.77C300.078 244.744 300.864 245.535 301.833 245.535Z" fill="#17A4FE"/>
<path d="M301.833 246.691C300.234 246.691 298.927 245.383 298.927 243.77C298.927 242.157 300.229 240.848 301.833 240.848C303.437 240.848 304.738 242.157 304.738 243.77C304.738 245.383 303.431 246.691 301.833 246.691ZM301.833 243.161C301.498 243.161 301.228 243.433 301.228 243.77C301.228 244.106 301.498 244.378 301.833 244.378C302.168 244.378 302.438 244.106 302.438 243.77C302.438 243.433 302.168 243.161 301.833 243.161Z" fill="#FED444"/>
<path d="M172.359 278.635L172.311 277.55L134.815 279.249L134.864 280.334L172.359 278.635Z" fill="#17A4FE"/>
<path d="M180.46 281.894L180.412 280.809L142.916 282.507L142.964 283.592L180.46 281.894Z" fill="#17A4FE"/>
<path d="M320.6 276.761H296.837V288.165H320.6V276.761Z" fill="#FED444"/>
<path d="M320.87 287.894H296.567V294.41H320.87V287.894Z" fill="#17A4FE"/>
<path d="M320.87 287.894H296.567V294.41H320.87V287.894Z" stroke="#FED444" stroke-width="8.6" stroke-miterlimit="10"/>
<path d="M311.419 300.656H284.956V305H311.419V300.656Z" fill="#F2B814"/>
<path d="M323.84 300.656H312.499V305H323.84V300.656Z" fill="#F2B814"/>
<path d="M316.278 305.003V291.97H306.557V305.003H316.278Z" fill="#F2B814"/>
<path d="M116.985 132.219C116.985 132.219 136.503 156.011 159.557 145.655V149.967C159.563 149.961 117.244 168.789 116.985 132.219Z" fill="#F2B814"/>
<path d="M323.213 199.95C322.565 203.621 318.272 205.924 313.622 205.098C308.967 204.273 305.721 200.623 306.364 196.958C307.012 193.287 311.305 190.984 315.955 191.81C320.61 192.635 323.861 196.279 323.213 199.95Z" fill="#17A4FE"/>
<path d="M312.855 195.991C312.315 196.996 311.446 197.571 310.911 197.284C310.376 196.996 310.382 195.948 310.922 194.943C311.462 193.938 312.331 193.363 312.866 193.651C313.401 193.944 313.395 194.992 312.855 195.991Z" fill="white"/>
<path d="M318.601 197.517C318.137 198.56 317.311 199.201 316.76 198.951C316.209 198.701 316.139 197.653 316.603 196.616C317.068 195.573 317.894 194.932 318.445 195.182C318.996 195.432 319.071 196.475 318.601 197.517Z" fill="white"/>
<path d="M318.266 201.563C317.953 202.834 315.134 204.512 312.542 203.757C309.944 203.002 308.297 200.792 308.864 198.826C308.864 198.826 313.768 198.299 318.266 201.563Z" fill="white"/>
<path d="M318.337 217.225C319.12 217.122 320.351 216.752 321.069 216.416L325.33 214.385C326.049 214.042 326.216 214.265 325.708 214.879L321.129 220.407C320.621 221.021 320.519 222.091 320.902 222.791L323.991 228.439C324.374 229.14 324.115 229.395 323.424 229.009L318.007 226.001C317.316 225.615 316.49 225.898 316.171 226.631L314.508 230.481C314.195 231.214 313.892 231.16 313.844 230.362L313.379 222.666C313.33 221.873 312.898 220.7 312.418 220.065L307.736 213.874C307.255 213.239 307.444 213.016 308.146 213.38L313.012 215.867C313.719 216.231 314.848 216.731 315.523 216.986C316.198 217.241 317.392 217.361 318.175 217.257L318.337 217.225Z" fill="#FED444"/>
<path d="M319.541 213.776C319.541 215.112 318.472 216.193 317.154 216.193C315.836 216.193 314.767 215.112 314.767 213.776C314.767 212.44 315.836 211.36 317.154 211.36C318.472 211.36 319.541 212.44 319.541 213.776Z" fill="#FED444"/>
<path d="M300.758 221.026C300.175 220.945 299.262 220.657 298.738 220.385L295.703 218.838C295.174 218.572 295.044 218.735 295.406 219.202L298.722 223.47C299.084 223.937 299.16 224.752 298.89 225.284L296.643 229.672C296.373 230.199 296.567 230.383 297.075 230.085L300.953 227.787C301.46 227.483 302.06 227.69 302.281 228.238L303.502 231.252C303.723 231.801 303.934 231.768 303.966 231.176L304.306 225.175C304.339 224.583 304.647 223.704 304.992 223.215L308.384 218.425C308.724 217.942 308.583 217.779 308.065 218.061L304.587 219.962C304.069 220.244 303.248 220.635 302.762 220.831C302.276 221.026 301.401 221.119 300.812 221.032L300.758 221.026Z" fill="#17A4FE"/>
<path d="M299.856 218.365C299.856 219.397 300.629 220.228 301.579 220.228C302.529 220.228 303.302 219.392 303.302 218.365C303.302 217.339 302.529 216.503 301.579 216.503C300.623 216.503 299.856 217.339 299.856 218.365Z" fill="#17A4FE"/>
<path d="M314.151 164.694C313.023 162.598 311.046 160.812 308.686 160.567C306.326 160.323 303.755 162.071 303.647 164.456C303.561 166.34 304.916 167.991 306.412 169.137C307.908 170.283 309.637 171.152 310.873 172.574C312.11 173.997 312.709 176.251 311.575 177.755C313.903 176.251 316.014 174.41 317.824 172.308C318.807 171.168 319.725 169.908 320.13 168.452C320.535 166.997 320.351 165.297 319.336 164.184C318.391 163.147 316.792 162.772 315.491 163.293C314.189 163.809 313.276 165.183 313.298 166.59" fill="#FED444"/>
</g>
<defs>
<clipPath id="clip0_231_593">
<rect width="326" height="305" fill="white"/>
</clipPath>
</defs>
</svg>
