<svg width="319" height="288" viewBox="0 0 319 288" fill="none" xmlns="http://www.w3.org/2000/svg">
<g clip-path="url(#clip0_224_633)">
<path d="M218.406 175.856H100.634V219.915H218.406V175.856Z" fill="white"/>
<path d="M121.796 192.051C120.23 196.256 118.665 200.461 117.031 204.643C116.234 206.692 115.415 208.741 114.584 210.779C114.386 211.269 114.183 211.758 113.979 212.243C113.877 212.485 113.776 212.727 113.674 212.974C113.335 213.796 113.968 212.282 113.962 212.293C113.493 213.335 113.058 214.393 112.6 215.44C108.988 223.608 104.89 231.584 99.8934 239.004C98.7008 240.771 97.3895 242.454 96.1686 244.199C96.129 244.256 97.2425 242.843 96.6999 243.513C96.5529 243.693 96.4116 243.879 96.2646 244.064C95.9707 244.43 95.6768 244.79 95.3829 245.151C94.7385 245.933 94.0828 246.704 93.4102 247.47C90.7762 250.465 87.9388 253.285 84.9148 255.886C84.2026 256.499 83.4847 257.096 82.7499 257.681C82.5691 257.828 82.3825 257.968 82.2017 258.12C81.5347 258.666 82.9421 257.557 82.8913 257.597C82.4504 257.912 82.0208 258.255 81.5799 258.576C79.9464 259.764 78.2733 260.89 76.5437 261.943C74.8932 262.95 73.2032 263.885 71.4736 264.746C70.6483 265.157 69.8118 265.551 68.9696 265.928C68.7605 266.024 68.5457 266.108 68.3365 266.204C67.5396 266.564 69.2522 265.827 69.1787 265.849C68.67 266.024 68.1783 266.249 67.6809 266.44C64.0012 267.831 60.2141 268.805 56.3367 269.452C54.8897 269.694 58.0776 269.26 56.6193 269.418C56.1558 269.469 55.6923 269.519 55.2288 269.564C54.3414 269.643 53.4483 269.7 52.5609 269.722C50.8426 269.773 49.1186 269.722 47.406 269.581C46.9255 269.542 46.4451 269.491 45.9647 269.435C45.7838 269.412 45.5238 269.334 45.3486 269.362C45.2355 269.379 47.276 269.649 46.4394 269.503C45.552 269.345 44.6703 269.21 43.7885 269.024C42.0985 268.669 40.4254 268.225 38.7806 267.696C37.9949 267.442 37.2092 267.166 36.4348 266.868C36.1296 266.75 34.7391 266.176 36.0448 266.733C37.3675 267.29 35.8018 266.62 35.4796 266.474C33.8574 265.731 32.2747 264.898 30.7486 263.98C30.0477 263.558 29.3581 263.113 28.6799 262.657C28.3407 262.427 28.0072 262.196 27.6794 261.954C27.5155 261.836 27.3516 261.712 27.1876 261.594C26.402 261.042 28.5781 262.703 27.832 262.095C26.5263 261.025 25.2489 259.933 24.0563 258.734C23.4402 258.115 22.8523 257.479 22.2814 256.82C22.0214 256.516 21.7614 256.212 21.5071 255.897C20.4557 254.608 22.3662 257.079 21.6484 256.077C20.6818 254.715 19.7661 253.33 18.9748 251.855C18.5961 251.146 18.2626 250.42 17.9122 249.699C17.573 249.007 18.3078 250.724 18.3192 250.673C18.3361 250.56 18.1383 250.223 18.0931 250.11C17.9178 249.671 17.7596 249.226 17.6013 248.782C17.3074 247.926 17.0474 247.059 16.8269 246.181C16.55 245.1 16.5161 243.805 16.1261 242.77C16.1204 242.753 16.3182 244.464 16.2334 243.563C16.2108 243.299 16.1713 243.034 16.1487 242.775C16.0978 242.252 16.0582 241.723 16.0243 241.193C15.9565 240.051 15.9452 238.908 15.9734 237.76C16.0017 236.701 16.0639 235.643 16.1656 234.59C16.1939 234.281 16.4143 232.53 16.2391 233.797C16.0639 235.058 16.3578 233.087 16.42 232.744C17.2113 228.19 18.5566 223.743 20.1675 219.414C20.5518 218.378 20.9531 217.348 21.3658 216.324C21.5749 215.811 21.7897 215.299 21.9932 214.787C22.3323 213.959 21.7332 215.401 21.7275 215.412C21.8914 215.085 22.0214 214.731 22.1627 214.399C23.1123 212.214 24.1071 210.047 25.1189 207.891C29.3299 198.907 33.6143 189.951 37.8649 180.978C46.1003 163.59 54.2001 146.128 62.6446 128.835C70.2979 113.163 78.4938 97.6606 88.6227 83.4132C89.8662 81.6625 91.1436 79.9287 92.4493 78.2174C92.6076 78.0148 92.7715 77.8121 92.9185 77.6039C91.7767 79.1913 92.3476 78.3356 92.6245 77.9866C92.9467 77.5813 93.2633 77.176 93.5854 76.7707C94.2863 75.8982 94.9929 75.0313 95.7051 74.17C98.4069 70.922 101.227 67.7697 104.189 64.7637C107.083 61.8309 110.118 59.0276 113.278 56.3819C114.024 55.757 114.776 55.1434 115.539 54.5355C115.918 54.2315 116.302 53.9332 116.686 53.6292C116.873 53.4828 117.568 52.948 116.653 53.6573C115.686 54.406 116.613 53.6911 116.816 53.5391C118.501 52.2725 120.219 51.0454 121.971 49.8689C125.323 47.6116 128.794 45.5175 132.366 43.6205C134.214 42.641 136.091 41.7122 137.99 40.8397C138.425 40.637 138.866 40.44 139.307 40.2486C139.59 40.1248 141.11 39.4774 139.901 39.9841C138.691 40.4907 140.217 39.8602 140.505 39.742C141.025 39.5337 141.545 39.3311 142.071 39.1284C145.864 37.6761 149.747 36.4602 153.692 35.5201C155.62 35.0585 157.564 34.6645 159.514 34.338C159.983 34.2592 160.452 34.186 160.922 34.1128C161.159 34.079 161.391 34.0453 161.628 34.0115C162.521 33.8764 160.599 34.1466 160.684 34.1353C161.707 34.0509 162.73 33.8989 163.753 33.8088C167.795 33.4542 171.864 33.4092 175.911 33.6906C176.872 33.7582 177.833 33.8426 178.789 33.9496C179.269 34.0002 179.749 34.079 180.23 34.1185C180.309 34.1241 178.415 33.8539 179.309 34.0002C179.625 34.0509 179.947 34.0959 180.264 34.1466C182.327 34.4731 184.379 34.8784 186.413 35.3681C190.319 36.3082 194.152 37.541 197.882 39.0271C198.165 39.1397 199.696 39.7758 198.493 39.2691C197.289 38.7625 198.815 39.4155 199.092 39.5393C200.126 39.9953 201.143 40.4738 202.161 40.9635C203.975 41.8473 205.761 42.7874 207.519 43.7837C211.114 45.8215 214.579 48.0844 217.908 50.5275C218.298 50.8146 218.688 51.1129 219.078 51.4C219.779 51.9123 218.394 50.8653 218.434 50.899C218.626 51.051 218.818 51.1974 219.01 51.3494C219.841 52.0023 220.661 52.661 221.475 53.3365C223.035 54.6312 224.561 55.9653 226.053 57.3388C229.202 60.2378 232.186 63.317 235.023 66.52C236.459 68.1412 237.861 69.8018 239.223 71.4849C239.551 71.8902 239.873 72.2955 240.201 72.7065C240.382 72.9373 241.439 74.2826 240.698 73.3369C239.958 72.3912 241.004 73.7479 241.184 73.9787C241.552 74.4628 241.914 74.9525 242.275 75.4366C252.862 89.7854 261.115 105.71 268.559 121.849C270.531 126.127 272.357 130.467 274.284 134.774C274.279 134.768 273.674 133.327 274.019 134.155C274.126 134.408 274.234 134.667 274.341 134.92C274.556 135.432 274.771 135.945 274.98 136.457C275.438 137.566 275.895 138.675 276.348 139.789C277.218 141.928 278.066 144.073 278.902 146.229C282.316 155.011 285.459 163.894 288.33 172.866C293.926 190.339 298.895 208.285 301.941 226.394C302.111 227.402 302.263 228.415 302.416 229.428C302.642 230.931 302.23 227.841 302.405 229.35C302.484 230.025 302.569 230.706 302.637 231.382C302.857 233.487 303.004 235.604 303.055 237.72C303.106 239.809 303.06 241.903 302.897 243.985C302.857 244.481 302.812 244.976 302.755 245.472C302.727 245.719 302.693 245.961 302.67 246.209C302.574 247.104 302.8 245.269 302.789 245.325C302.495 246.423 302.405 247.599 302.145 248.714C301.924 249.671 301.664 250.622 301.37 251.562C301.223 252.03 301.071 252.497 300.901 252.964C300.788 253.285 300.076 255.019 300.59 253.853C301.105 252.683 300.415 254.219 300.285 254.49C300.07 254.94 299.844 255.385 299.613 255.829C299.183 256.64 298.719 257.434 298.222 258.21C297.821 258.835 297.397 259.651 296.854 260.164C296.741 260.271 298.058 258.706 297.493 259.336C297.363 259.483 297.244 259.646 297.12 259.792C296.781 260.198 296.436 260.592 296.08 260.98C294.966 262.19 293.757 263.288 292.496 264.346C292.355 264.464 292.197 264.622 292.033 264.718C291.897 264.797 293.565 263.603 292.864 264.076C292.536 264.296 292.225 264.543 291.903 264.768C291.196 265.258 290.478 265.72 289.744 266.159C288.314 267.014 286.833 267.741 285.318 268.433C284.436 268.838 287.025 267.746 286.115 268.101C285.928 268.174 285.742 268.253 285.555 268.326C285.182 268.472 284.803 268.613 284.425 268.748C283.605 269.041 282.769 269.311 281.932 269.553C280.31 270.026 278.665 270.403 277.003 270.69C276.664 270.747 276.105 270.724 275.799 270.882C275.698 270.932 277.744 270.645 276.913 270.735C276.709 270.758 276.506 270.786 276.308 270.809C275.432 270.904 274.55 270.977 273.668 271.022C271.905 271.112 270.136 271.107 268.372 270.994C267.558 270.944 266.75 270.854 265.936 270.775C265.082 270.696 267.174 270.972 267.044 270.932C266.863 270.87 266.631 270.87 266.439 270.842C265.97 270.769 265.501 270.69 265.037 270.606C263.375 270.296 261.736 269.891 260.125 269.39C259.227 269.108 258.339 268.799 257.463 268.467C257.045 268.309 256.632 268.118 256.208 267.971C256.124 267.943 257.865 268.698 257.079 268.332C256.807 268.208 256.531 268.09 256.259 267.966C254.564 267.189 252.907 266.322 251.302 265.376C249.697 264.425 248.143 263.395 246.639 262.297C246.39 262.111 245.13 261.166 246.192 261.971C247.255 262.776 245.876 261.706 245.599 261.475C244.847 260.856 244.112 260.22 243.389 259.567C240.58 257.028 238.093 254.231 235.679 251.32C235.131 250.662 236.273 252.097 236.227 252.035C236.092 251.849 235.95 251.675 235.815 251.495C235.493 251.073 235.176 250.645 234.865 250.217C234.289 249.418 233.723 248.607 233.175 247.785C232.118 246.209 231.123 244.588 230.179 242.944C229.235 241.3 228.354 239.623 227.523 237.917C227.127 237.101 226.743 236.279 226.37 235.452C226.161 234.979 225.895 234.495 225.737 234.005C225.697 233.881 226.455 235.733 226.132 234.934C226.025 234.675 225.918 234.416 225.81 234.157C224.471 230.864 223.272 227.509 222.136 224.143C219.79 217.202 217.699 210.177 215.105 203.326C209.611 188.791 201.517 174.212 186.967 167.018C178.014 162.593 168.292 161.192 158.435 162.593C149.668 163.837 141.534 168.065 135 173.953C128.856 179.492 124.334 186.827 121.932 194.708C120.722 198.682 123.379 203.54 127.499 204.474C131.806 205.448 136.006 203.185 137.306 198.93C137.561 198.085 137.843 197.252 138.154 196.425C138.25 196.171 138.408 195.873 138.476 195.603C138.499 195.518 137.736 197.252 138.103 196.486C138.324 196.025 138.527 195.552 138.759 195.09C139.607 193.379 140.584 191.735 141.681 190.171C141.93 189.81 142.224 189.473 142.461 189.101C142.506 189.028 141.348 190.491 141.89 189.838C142.031 189.67 142.167 189.495 142.308 189.326C142.964 188.532 143.654 187.761 144.366 187.024C144.982 186.388 145.615 185.774 146.271 185.183C146.599 184.885 146.932 184.598 147.271 184.311C147.497 184.119 147.723 183.939 147.955 183.748C148.775 183.072 147.61 184.035 147.39 184.175C149.012 183.14 150.521 182.003 152.223 181.091C153.003 180.674 153.8 180.297 154.602 179.925C155.88 179.334 153.008 180.533 154.331 180.044C154.913 179.83 155.49 179.61 156.077 179.419C158.011 178.783 159.966 178.389 161.956 178.006C162.838 177.837 160.967 178.124 161.035 178.124C161.351 178.107 161.679 178.051 161.995 178.017C162.476 177.972 162.962 177.933 163.442 177.905C164.488 177.843 165.539 177.82 166.591 177.843C167.642 177.865 168.688 177.927 169.734 178.034C169.977 178.057 170.214 178.09 170.457 178.113C171.35 178.203 169.474 177.972 169.541 177.995C170.078 178.141 170.666 178.18 171.214 178.287C173.278 178.693 175.301 179.261 177.268 179.993C177.556 180.1 179.094 180.719 177.89 180.224C176.697 179.734 178.37 180.46 178.704 180.623C179.648 181.085 180.569 181.58 181.468 182.121C182.253 182.588 183.016 183.089 183.768 183.613C183.943 183.736 184.882 184.232 184.944 184.468C184.967 184.558 183.525 183.337 184.141 183.86C184.35 184.035 184.565 184.204 184.78 184.378C186.131 185.504 187.408 186.714 188.612 188.003C189.161 188.594 189.697 189.197 190.212 189.816C190.342 189.974 190.947 190.897 191.099 190.908C191.128 190.908 190.025 189.489 190.466 190.097C190.624 190.317 190.788 190.525 190.947 190.745C193.032 193.599 194.819 196.661 196.39 199.819C197.164 201.373 197.865 202.96 198.566 204.547C197.469 202.065 198.696 204.896 198.962 205.572C199.301 206.428 199.629 207.289 199.951 208.15C201.257 211.64 202.432 215.175 203.591 218.716C205.897 225.781 208.113 232.89 210.995 239.747C217.637 255.542 228.088 270.06 243.055 278.993C256.847 287.229 274.217 289.542 289.41 283.806C296.849 280.997 303.869 276.702 308.888 270.443C315.145 262.635 318.175 253.442 318.876 243.524C319.526 234.303 317.983 224.959 316.14 215.952C314.218 206.585 311.968 197.286 309.453 188.065C304.423 169.624 298.25 151.492 290.987 133.806C283.729 116.136 275.731 98.6007 265.851 82.2141C256.536 66.7733 245.237 52.0755 231.05 40.7609C217.236 29.7446 201.002 21.2107 183.31 18.6889C173.882 17.3435 164.669 17.4955 155.275 19.066C146.627 20.5127 138.346 23.3723 130.382 26.975C114.589 34.1128 100.425 45.1066 88.8431 57.9017C76.5041 71.5356 66.5278 87.1003 57.8628 103.245C49.0113 119.727 41.2619 136.789 33.2582 153.688C28.8551 162.987 24.4519 172.287 20.0431 181.58C15.6004 190.959 10.9824 200.275 6.95234 209.839C3.0805 218.913 0.0734625 228.578 -1.76289e-05 238.553C-0.0621932 247.425 2.41352 256.51 7.63627 263.766C17.2904 277.186 33.1735 285.017 49.6613 285.591C67.2343 286.204 83.9935 277.851 96.8864 266.502C110.452 254.563 119.756 238.621 126.889 222.246C130.608 213.701 133.915 205.003 137.165 196.273C138.617 192.372 135.548 187.401 131.597 186.506C127.081 185.481 123.351 187.874 121.796 192.051Z" fill="white"/>
<path d="M77.8947 93.6752C93.1785 101.781 105.619 112.088 120.897 120.194C127.149 123.51 133.615 127.006 137.832 132.68C143.349 140.105 144.078 150.04 143.122 159.227C141.003 179.593 131.812 198.462 122.763 216.847C116.432 229.704 110.045 242.663 101.29 254.017C92.5342 265.371 81.1334 275.165 67.4718 279.646C53.8101 284.127 37.7406 282.635 26.5377 273.657C13.4469 263.164 9.26983 244.554 11.8529 228.021C14.4361 211.488 22.6771 196.447 30.7826 181.789C46.0777 154.133 64.4591 121.337 79.7599 93.6752" fill="#17A4FE"/>
<path d="M75.3285 98.049C90.2732 105.997 103.517 116.698 118.467 124.641C121.83 126.431 125.205 128.238 128.313 130.451C128.636 130.676 128.941 130.985 129.291 131.165C128.24 130.614 128.749 130.749 129.093 131.025C129.252 131.149 129.404 131.278 129.563 131.408C130.297 132.015 131.004 132.652 131.676 133.321C132.321 133.958 132.903 134.639 133.497 135.32C134.186 136.108 132.943 134.56 133.355 135.123C133.502 135.325 133.655 135.528 133.802 135.731C134.09 136.136 134.367 136.553 134.627 136.98C135.096 137.74 135.526 138.523 135.91 139.328C135.995 139.508 136.074 139.688 136.159 139.863C136.611 140.797 135.803 138.956 136.057 139.604C136.238 140.065 136.419 140.521 136.583 140.994C137.193 142.733 137.64 144.529 137.956 146.347C138.001 146.595 138.041 146.843 138.075 147.09C138.137 147.501 138.069 148.166 138.041 146.792C138.052 147.192 138.137 147.597 138.177 147.997C138.273 149.004 138.341 150.018 138.369 151.031C138.431 152.911 138.386 154.791 138.261 156.666C138.199 157.578 138.12 158.49 138.024 159.396C137.973 159.902 137.911 160.409 137.849 160.91C137.854 160.871 137.741 161.563 137.764 161.58C137.871 160.792 137.888 160.679 137.809 161.242C137.792 161.355 137.775 161.467 137.758 161.574C137.448 163.691 137.069 165.796 136.617 167.885C135.746 171.954 134.627 175.974 133.327 179.931C132.004 183.962 130.495 187.93 128.867 191.854C128.737 192.175 128.155 193.745 128.652 192.372C128.5 192.799 128.296 193.21 128.116 193.627C127.663 194.668 127.205 195.71 126.742 196.751C125.86 198.727 124.95 200.686 124.029 202.645C120.44 210.255 116.726 217.815 112.888 225.302C108.999 232.885 104.845 240.36 99.9387 247.346C99.3509 248.185 98.7517 249.012 98.1413 249.834C97.87 250.2 97.5986 250.566 97.3217 250.926C97.2482 251.022 96.553 251.923 97.1182 251.196C97.6552 250.504 96.9712 251.377 96.8638 251.512C95.7051 252.97 94.5068 254.399 93.269 255.79C90.7537 258.61 88.0632 261.278 85.1918 263.738C84.5418 264.296 83.8861 264.842 83.2191 265.371C83.0213 265.528 82.8235 265.686 82.6256 265.838C82.3204 266.074 81.7156 266.361 82.8178 265.692C82.3939 265.945 82.0095 266.3 81.6082 266.587C80.0708 267.707 78.4881 268.759 76.8603 269.745C75.3228 270.673 73.7458 271.54 72.1293 272.334C71.321 272.728 70.5014 273.1 69.6818 273.465C68.7209 273.893 70.5862 273.1 69.9305 273.364C69.6988 273.46 69.467 273.556 69.2353 273.646C68.7718 273.831 68.3027 274.006 67.8335 274.18C66.1322 274.8 64.4026 275.34 62.6447 275.773C61.7968 275.982 60.9433 276.173 60.0898 276.336C59.6603 276.421 59.2307 276.494 58.8011 276.567C58.6089 276.601 58.4168 276.629 58.2246 276.657C58.0324 276.685 57.8402 276.714 57.648 276.742C57.908 276.708 58.1624 276.674 58.4224 276.64C54.884 277.237 51.097 277.164 47.536 276.815C47.1008 276.77 46.6712 276.714 46.2416 276.668C47.9487 276.849 46.4169 276.685 46.0212 276.618C45.1225 276.471 44.2238 276.297 43.3307 276.089C41.5559 275.683 39.8093 275.165 38.108 274.529C37.7519 274.394 37.3958 274.254 37.0397 274.113C36.0901 273.741 37.961 274.524 37.3336 274.237C37.1188 274.135 36.8984 274.045 36.6779 273.944C35.8527 273.567 35.0444 273.156 34.2531 272.722C32.6874 271.861 31.2856 270.814 29.8047 269.835C31.0934 270.685 29.9347 269.919 29.6238 269.66C29.3129 269.401 29.0021 269.131 28.6968 268.861C28.0242 268.258 27.3742 267.634 26.7524 266.986C26.1929 266.406 25.6502 265.804 25.1302 265.191C24.8985 264.915 24.678 264.639 24.452 264.363C23.8358 263.609 25.0681 265.185 24.6724 264.645C24.5141 264.431 24.3502 264.217 24.1919 263.997C23.2197 262.657 22.338 261.256 21.541 259.809C21.151 259.1 20.7836 258.385 20.4332 257.653C20.2579 257.287 20.0884 256.921 19.9244 256.55C19.834 256.347 19.7323 256.139 19.6531 255.931C19.7549 256.167 19.8566 256.403 19.9527 256.64C19.8849 256.471 19.817 256.308 19.7492 256.139C18.4944 253.015 17.5844 249.75 16.9796 246.44C16.9061 246.034 16.8383 245.629 16.7704 245.218C16.7083 244.819 16.5217 243.327 16.7309 245.066C16.6235 244.199 16.5217 243.332 16.4483 242.46C16.3013 240.76 16.2335 239.054 16.2335 237.349C16.2335 235.604 16.3126 233.853 16.4652 232.114C16.5387 231.303 16.5783 230.459 16.7309 229.659C16.7252 229.699 16.5387 231.016 16.6574 230.194C16.6857 230.014 16.7083 229.834 16.7365 229.654C16.827 229.063 16.9231 228.477 17.0248 227.892C17.7596 223.765 18.8392 219.707 20.1788 215.733C20.8401 213.768 21.5636 211.832 22.3323 209.906C22.5189 209.439 22.711 208.972 22.9032 208.505C22.9823 208.308 23.0615 208.071 23.1632 207.886C22.5584 209 22.9767 208.33 23.1124 208.009C23.5363 207.03 23.9715 206.05 24.418 205.082C26.1816 201.232 28.0977 197.46 30.0873 193.723C37.8197 179.177 46.0043 164.862 54.0192 150.468C62.2151 135.753 70.4223 121.039 78.5955 106.313C80.4552 102.963 82.3148 99.6083 84.1687 96.2533C85.4518 93.9341 84.8131 90.6241 82.343 89.3238C79.9577 88.0685 76.7585 88.6652 75.385 91.142C67.1722 105.992 58.9085 120.819 50.6448 135.646C42.415 150.417 34.1796 165.188 26.0007 179.993C17.6748 195.057 9.13982 210.773 6.77149 228.049C4.68013 243.282 7.5063 259.28 17.2565 271.523C22.1288 277.642 28.8495 282.027 36.2088 284.594C43.9016 287.279 52.1879 287.662 60.2029 286.536C76.0181 284.324 90.0415 274.636 100.459 262.961C112.136 249.874 119.937 234.106 127.607 218.508C135.339 202.791 143.168 186.72 146.666 169.444C148.402 160.865 149.283 152.038 147.706 143.375C146.977 139.362 145.553 135.365 143.399 131.886C141.008 128.013 137.804 124.962 134.175 122.26C131.077 119.952 127.675 118.089 124.266 116.276C120.417 114.227 116.641 112.049 112.945 109.741C105.676 105.198 98.6613 100.267 91.4037 95.7073C87.8258 93.4612 84.1857 91.3109 80.4552 89.3294C78.1094 88.0797 74.8141 88.6652 73.4971 91.1476C72.2593 93.4725 72.8245 96.7149 75.3285 98.049Z" fill="white"/>
<path d="M267.796 97.3792C251.935 103.07 238.505 111.278 222.651 116.963C216.162 119.294 209.441 121.759 204.586 126.64C198.233 133.029 196.141 142.497 195.774 151.481C194.965 171.397 201.183 190.857 207.327 209.822C211.623 223.09 215.97 236.459 222.82 248.618C229.671 260.777 239.285 271.788 251.817 278.003C264.348 284.217 280.044 285.005 292.095 277.907C306.175 269.615 312.805 252.26 312.63 235.975C312.455 219.69 306.616 204.046 300.856 188.803C289.987 160.032 276.862 125.88 265.993 97.1089" fill="#17A4FE"/>
<path d="M266.445 92.4987C258.204 95.4652 250.268 99.1917 242.36 102.941C238.59 104.731 234.814 106.515 230.993 108.198C230.078 108.598 229.162 108.992 228.246 109.386C227.986 109.499 227.348 109.73 228.535 109.262C228.325 109.341 228.122 109.431 227.919 109.521C227.348 109.758 226.782 109.989 226.212 110.214C224.261 110.996 222.289 111.722 220.316 112.432C212.736 115.167 204.738 118.337 199.482 124.731C194.123 131.256 191.828 139.221 190.981 147.484C190.093 156.103 190.885 164.856 192.281 173.379C193.699 182.042 195.994 190.536 198.555 198.93C201.059 207.131 203.693 215.31 206.496 223.416C209.345 231.674 212.527 239.865 216.535 247.639C223.532 261.188 233.656 273.831 247.216 281.301C261.318 289.075 279.36 290.702 293.779 282.787C306.554 275.773 314.286 261.931 316.694 247.932C318.096 239.769 317.858 231.697 316.598 223.529C315.286 215.023 312.76 206.748 309.9 198.648C307.181 190.947 304.214 183.331 301.314 175.698C298.414 168.053 295.503 160.409 292.592 152.77C286.714 137.346 280.824 121.922 274.968 106.487C273.612 102.913 272.261 99.3381 270.91 95.7636C270.435 94.5026 269.78 93.4387 268.576 92.7351C267.485 92.099 265.88 91.8288 264.659 92.2228C262.234 93.0053 260.103 95.7974 261.109 98.4487C267.355 114.987 273.663 131.503 279.959 148.019C286.279 164.597 292.739 181.136 298.833 197.798C302.405 207.57 305.632 217.545 307.045 227.886C306.983 227.436 306.927 226.991 306.864 226.541C307.656 232.496 307.831 238.503 307.045 244.47C307.107 244.019 307.164 243.575 307.226 243.124C306.757 246.569 306 249.975 304.909 253.279C304.66 254.039 304.394 254.788 304.106 255.537C303.948 255.947 303.784 256.358 303.62 256.769C303.32 257.518 303.812 256.33 303.824 256.291C303.733 256.539 303.614 256.775 303.507 257.017C302.789 258.621 301.987 260.181 301.093 261.695C300.251 263.119 299.324 264.493 298.329 265.815C297.753 266.581 298.985 264.994 298.567 265.511C298.431 265.68 298.296 265.849 298.16 266.018C297.939 266.288 297.719 266.553 297.487 266.812C296.894 267.499 296.272 268.163 295.628 268.805C295.045 269.384 294.446 269.947 293.825 270.488C293.565 270.718 293.299 270.938 293.033 271.163C292.83 271.326 292.626 271.49 292.423 271.653C291.728 272.216 293.401 270.938 292.621 271.495C291.225 272.497 289.794 273.432 288.274 274.242C287.799 274.496 287.324 274.732 286.838 274.963C286.46 275.143 284.764 275.796 286.324 275.216C285.323 275.588 284.34 275.976 283.317 276.297C281.276 276.927 279.191 277.378 277.077 277.676C277.529 277.614 277.975 277.558 278.428 277.496C274.539 278.014 270.616 277.986 266.727 277.479C267.18 277.541 267.626 277.597 268.078 277.659C265.93 277.366 263.805 276.939 261.714 276.365C260.764 276.1 259.82 275.813 258.893 275.492C258.43 275.334 257.966 275.165 257.503 274.991C257.226 274.884 256.954 274.783 256.678 274.67C256.497 274.597 256.316 274.524 256.129 274.451C256.847 274.755 257.022 274.828 256.666 274.676C252.868 272.987 249.284 270.904 245.949 268.427C245.757 268.287 245.571 268.129 245.373 267.994C246.616 268.844 245.763 268.292 245.492 268.078C245.119 267.78 244.745 267.476 244.372 267.172C243.558 266.497 242.767 265.804 241.987 265.089C240.427 263.654 238.935 262.151 237.511 260.58C236.86 259.865 236.227 259.139 235.606 258.396C235.295 258.025 234.99 257.653 234.684 257.276C234.503 257.051 234.323 256.826 234.142 256.595C233.916 256.313 233.401 255.491 234.221 256.702C233.023 254.94 231.694 253.279 230.524 251.495C228.077 247.763 225.912 243.845 223.962 239.826C223.476 238.824 223.001 237.816 222.543 236.803C222.311 236.296 222.085 235.789 221.859 235.277C221.724 234.973 221.594 234.664 221.458 234.36C221.367 234.157 221.283 233.949 221.192 233.746C221.277 233.943 221.362 234.14 221.441 234.337C220.847 233.313 220.486 232.029 220.05 230.931C219.598 229.789 219.157 228.646 218.722 227.498C215.308 218.412 212.386 209.135 209.481 199.881C206.123 189.202 203.088 178.383 201.567 167.277C201.63 167.727 201.686 168.172 201.748 168.622C200.736 161.073 200.352 153.333 201.341 145.762C201.279 146.212 201.223 146.657 201.16 147.107C201.522 144.456 202.059 141.833 202.879 139.283C203.082 138.652 203.303 138.027 203.54 137.414C203.642 137.149 203.755 136.89 203.857 136.626C203.297 138.106 203.744 136.902 203.913 136.547C204.467 135.365 205.094 134.216 205.812 133.119C206.163 132.578 206.524 132.01 206.943 131.52C206.982 131.475 206.225 132.404 206.581 131.993C206.705 131.852 206.818 131.7 206.943 131.56C207.158 131.306 207.372 131.064 207.598 130.822C208.062 130.321 208.548 129.843 209.051 129.381C209.305 129.15 209.571 128.919 209.837 128.7C209.95 128.604 210.068 128.514 210.182 128.418C210.702 127.985 210.018 128.554 209.854 128.66C212.245 127.079 214.585 125.615 217.213 124.439C217.49 124.315 217.767 124.197 218.038 124.073C218.637 123.808 217.049 124.478 217.66 124.23C217.801 124.174 217.937 124.112 218.078 124.056C218.779 123.769 219.48 123.493 220.186 123.228C221.509 122.727 222.837 122.249 224.165 121.77C227.432 120.594 230.643 119.282 233.836 117.92C239.5 115.505 245.045 112.82 250.613 110.191C253.744 108.711 256.887 107.247 260.063 105.862C260.855 105.519 261.685 105.057 262.511 104.81C262.522 104.804 261.539 105.215 262.064 104.995C262.324 104.888 262.579 104.782 262.839 104.675C263.251 104.506 263.669 104.337 264.082 104.168C265.761 103.498 267.445 102.851 269.147 102.243C270.413 101.787 271.487 101.1 272.187 99.9179C272.826 98.8315 273.098 97.2328 272.702 96.0169C271.905 93.5907 269.124 91.5361 266.445 92.4987Z" fill="white"/>
<path d="M163.533 88.0685C166.8 83.6608 172.876 83.6608 176.143 88.0685L187.425 103.295L194.044 112.223C198.425 118.134 194.632 127.028 187.742 127.028H169.841H151.934C145.039 127.028 141.252 118.128 145.632 112.223L152.251 103.295L163.533 88.0685Z" fill="#FED444"/>
<path d="M210.99 33.9327C225.985 41.4026 236.567 52.2444 245.339 67.3644C248.657 63.2494 251.975 59.1289 255.293 55.014C258.142 53.7924 261.166 56.0103 263.777 57.6709C266.394 59.3315 270.599 60.1196 271.984 57.3557C272.877 55.5712 271.888 53.4603 270.921 51.7209C266.473 43.7331 262.03 35.7509 257.582 27.7631C255.756 24.4813 253.863 21.115 250.952 18.7339C247.447 15.863 242.869 14.7316 238.454 13.6789C230.649 11.8156 222.848 9.95801 215.043 8.09476C213.256 7.66694 211.114 7.33482 209.82 8.6239C208.458 9.9749 208.938 12.356 210.125 13.8647C211.312 15.3733 213.03 16.3753 214.33 17.7826C216.405 20.0286 217.281 23.3217 216.597 26.2995C215.913 29.2774 213.686 31.8611 210.837 32.9814" fill="#17A4FE"/>
<path d="M209.712 36.1224C212.55 37.541 215.308 39.1115 217.953 40.8509C219.242 41.701 220.503 42.5847 221.735 43.5135C221.904 43.6374 222.068 43.7669 222.232 43.8907C222.159 43.8344 221.842 43.5867 222.215 43.8794C222.515 44.1159 222.814 44.3523 223.114 44.5887C223.736 45.0897 224.352 45.5963 224.957 46.1199C227.274 48.1126 229.473 50.2517 231.53 52.509C232.576 53.6517 233.588 54.8282 234.566 56.0328C234.792 56.3087 235.012 56.5845 235.233 56.866C235.346 57.0067 235.453 57.1474 235.566 57.2881C235.645 57.3895 235.939 57.7723 235.628 57.367C236.131 58.0256 236.629 58.6842 237.121 59.3541C239.297 62.3432 241.286 65.4561 243.146 68.6478C243.898 69.9369 246.096 70.4548 247.136 69.1601C250.454 65.0452 253.772 60.9246 257.09 56.8097C256.717 57.0292 256.344 57.2431 255.971 57.4627C256.214 57.367 256.48 57.3163 256.723 57.2206C256.971 57.1193 256.655 57.2206 256.587 57.2206C256.734 57.2093 256.875 57.1981 257.022 57.1981C257.13 57.1981 257.243 57.215 257.35 57.2093C257.723 57.1868 256.966 57.108 257.328 57.2037C257.616 57.2825 257.91 57.3332 258.198 57.4289C258.328 57.4683 258.984 57.7385 258.565 57.5527C258.82 57.6653 259.068 57.7891 259.317 57.9186C259.854 58.2001 260.38 58.5153 260.894 58.8362C262.635 59.9226 264.319 61.0147 266.366 61.4537C268.361 61.8759 270.644 61.8647 272.374 60.6488C274.771 58.9656 275.381 55.9653 274.437 53.2802C273.544 50.7358 271.984 48.3997 270.678 46.0523C269.384 43.7275 268.09 41.4082 266.801 39.0834C264.235 34.4731 261.697 29.8515 259.102 25.2638C256.74 21.0925 253.947 17.169 249.64 14.816C245.396 12.4968 240.54 11.5792 235.877 10.4703C230.66 9.22622 225.443 7.98217 220.226 6.73812C217.795 6.15832 215.291 5.33083 212.782 5.20699C210.085 5.07189 207.384 6.5017 206.666 9.23185C206.016 11.7199 207.05 14.2643 208.712 16.1051C209.458 16.9326 210.351 17.6081 211.199 18.3286C211.612 18.6776 212.013 19.0322 212.386 19.4207C212.539 19.5783 212.686 19.7472 212.832 19.916C213.149 20.2819 212.889 20.0005 212.838 19.9217C212.917 20.0399 213.008 20.1581 213.087 20.2819C213.364 20.7097 213.607 21.1601 213.816 21.6217C213.601 21.1432 213.873 21.8074 213.912 21.9313C214.003 22.2071 214.082 22.4886 214.144 22.77C214.2 23.0177 214.251 23.2654 214.285 23.5187C214.206 23.0065 214.279 23.6369 214.291 23.8227C214.302 24.076 214.308 24.3293 214.296 24.5826C214.291 24.7628 214.2 25.534 214.285 24.9936C214.206 25.4833 214.093 25.9674 213.94 26.4346C213.906 26.5416 213.646 27.172 213.771 26.9075C213.901 26.6316 213.748 26.9469 213.726 26.9863C213.646 27.1383 213.567 27.2959 213.483 27.4479C213.262 27.8419 213.013 28.2191 212.742 28.5793C213.076 28.1403 212.629 28.6863 212.539 28.7876C212.352 28.9903 212.154 29.1873 211.951 29.3787C211.77 29.5419 211.589 29.6995 211.397 29.8515C211.832 29.5138 211.261 29.9247 211.148 29.9979C210.945 30.1274 210.735 30.2512 210.521 30.3694C210.374 30.4482 209.662 30.7635 210.182 30.5552C208.955 31.0562 207.949 32.2608 208.407 33.6681C208.791 34.8446 210.215 35.9761 211.532 35.4357C216.258 33.5049 219.677 28.9396 219.372 23.7157C219.214 21.0025 218.219 18.5256 216.501 16.4203C215.777 15.5309 214.873 14.816 213.997 14.0842C213.556 13.7183 213.115 13.3468 212.702 12.9415C212.51 12.7557 212.346 12.5418 212.154 12.356C211.877 12.0858 212.335 12.6656 212.16 12.3673C212.075 12.2266 211.979 12.0971 211.9 11.9564C211.849 11.8719 211.815 11.7762 211.759 11.6974C211.566 11.3991 211.883 12.0971 211.776 11.7594C211.708 11.5398 211.64 11.3203 211.578 11.1007C211.436 10.611 211.555 11.1627 211.572 11.2021C211.538 11.1289 211.549 10.8812 211.549 10.8249C211.549 10.7405 211.578 10.6223 211.555 10.5434C211.499 10.2901 211.425 11.005 211.561 10.5829C211.646 10.3183 211.476 10.3915 211.487 10.6729C211.482 10.5997 211.646 10.4027 211.668 10.3521C211.651 10.3971 211.352 10.6617 211.561 10.4984C211.629 10.4421 211.951 10.1944 211.674 10.3746C211.402 10.5491 211.702 10.3746 211.742 10.3577C212.182 10.1663 211.73 10.3633 211.662 10.3802C211.787 10.3464 211.911 10.3127 212.041 10.2789C212.346 10.2001 212.149 10.2901 211.956 10.2845C212.228 10.2901 212.505 10.262 212.776 10.2732C212.917 10.2789 213.053 10.3014 213.194 10.307C213.166 10.307 212.748 10.2338 213.042 10.2845C213.629 10.3915 214.206 10.5153 214.783 10.6504C216.19 10.9882 217.597 11.3203 218.999 11.658C224.488 12.9696 229.976 14.2756 235.47 15.5872C237.923 16.1726 240.399 16.713 242.807 17.4617C243.366 17.6362 243.926 17.822 244.48 18.0246C244.734 18.1203 244.989 18.2216 245.249 18.3173C245.328 18.3455 245.695 18.5087 245.288 18.3286C245.429 18.3905 245.571 18.4524 245.712 18.52C246.803 19.021 247.86 19.6008 248.838 20.2988C248.889 20.3382 249.279 20.6253 249.047 20.4508C248.838 20.2876 249.143 20.5296 249.154 20.5409C249.392 20.7435 249.629 20.9462 249.861 21.1545C250.319 21.5766 250.748 22.027 251.161 22.4942C251.342 22.6968 251.517 22.9051 251.687 23.119C251.76 23.2091 251.834 23.2992 251.907 23.3949C251.647 23.0571 251.89 23.378 251.935 23.4399C252.297 23.9522 252.659 24.4588 253.004 24.9879C254.388 27.127 255.581 29.3956 256.819 31.6247C259.566 36.5559 262.307 41.487 265.054 46.4126C266.416 48.8556 267.858 51.2762 269.135 53.7643C269.209 53.9106 269.282 54.057 269.356 54.209C269.378 54.2597 269.576 54.7325 269.474 54.4736C269.384 54.2428 269.525 54.6199 269.525 54.6312C269.576 54.7832 269.627 54.9408 269.672 55.0928C269.717 55.2448 269.751 55.4024 269.785 55.56C269.797 55.605 269.819 55.9653 269.808 55.6895C269.797 55.3742 269.78 55.8583 269.791 55.9315C269.78 56.1173 269.791 56.0835 269.825 55.8246C269.808 55.8977 269.791 55.9709 269.774 56.0497C269.78 56.1398 269.593 56.4888 269.785 56.1004C269.746 56.1736 269.706 56.2467 269.661 56.3199C269.57 56.4719 269.576 56.6746 269.627 56.3931C269.661 56.1961 269.768 56.2524 269.621 56.3762C269.633 56.365 269.395 56.5732 269.395 56.5845C269.395 56.5057 269.921 56.2693 269.537 56.455C269.503 56.4719 269.271 56.5958 269.265 56.6014C269.277 56.5338 269.819 56.4213 269.44 56.5226C269.384 56.5395 268.841 56.6464 268.824 56.6746C268.836 56.6521 269.367 56.6408 269.096 56.6352C268.983 56.6352 268.875 56.6521 268.762 56.6577C268.564 56.6633 268.361 56.6577 268.163 56.6464C268.163 56.6464 267.835 56.6408 267.813 56.6183C267.892 56.7083 268.372 56.7252 267.869 56.6126C267.451 56.5169 267.038 56.4213 266.637 56.2862C266.518 56.2467 266.405 56.2017 266.292 56.1623C266.202 56.1285 265.851 55.9597 266.173 56.1173C266.479 56.2693 266.202 56.1229 266.145 56.0948C266.01 56.0272 265.874 55.9653 265.744 55.8921C263.545 54.7381 261.663 53.1226 259.215 52.4527C257.876 52.0868 256.384 52.0136 255.044 52.4302C254.49 52.599 253.908 52.8298 253.495 53.2408C253.269 53.4659 253.083 53.7474 252.885 54.0007C252.421 54.5805 251.952 55.1547 251.489 55.7345C249.714 57.9355 247.939 60.1421 246.164 62.3431C245.294 63.424 244.418 64.5104 243.547 65.5912C244.875 65.7601 246.209 65.9346 247.538 66.1034C240.947 54.755 232.469 44.6281 221.571 37.1863C218.604 35.1598 215.489 33.3585 212.279 31.7486C211.092 31.1575 209.469 31.3939 208.802 32.6549C208.186 33.8088 208.441 35.4863 209.712 36.1224Z" fill="white"/>
<path d="M250.709 17.8164C250.816 17.2534 250.946 16.6905 251.11 16.1389C251.183 15.8968 251.263 15.6548 251.347 15.4183C251.398 15.272 251.455 15.12 251.517 14.9736C251.703 14.4951 251.455 14.8667 251.489 15.0299C251.46 14.8892 251.788 14.3995 251.856 14.2644C251.986 14.011 252.122 13.7634 252.263 13.5213C252.546 13.0316 252.857 12.5587 253.196 12.0971C253.23 12.0521 253.62 11.5736 253.32 11.9282C253.054 12.2378 253.331 11.917 253.399 11.8438C253.58 11.6243 253.767 11.4104 253.959 11.1964C254.343 10.7743 254.75 10.369 255.174 9.98055C255.411 9.76664 255.649 9.55836 255.897 9.35008C255.982 9.28253 256.141 9.18683 256.197 9.10802C256.163 9.15869 255.683 9.49081 256.084 9.19246C256.553 8.84908 257.028 8.52259 257.52 8.21299C258.011 7.90901 258.52 7.62192 259.04 7.35735C259.272 7.23914 259.504 7.12655 259.741 7.0196C259.888 6.95205 260.035 6.89013 260.188 6.82258C260.414 6.72125 259.634 7.04212 260.233 6.81132C261.318 6.38913 262.443 6.06264 263.59 5.83184C263.879 5.77555 264.161 5.73052 264.449 5.67986C264.8 5.61793 264.5 5.55038 264.28 5.70237C264.336 5.66297 264.625 5.66297 264.664 5.65734C265.275 5.59542 265.891 5.56164 266.501 5.55601C267.049 5.55601 267.598 5.5729 268.146 5.62356C268.282 5.63482 268.412 5.65171 268.547 5.66297C269.231 5.71926 268.084 5.58416 268.519 5.65171C268.858 5.708 269.197 5.75866 269.531 5.82621C270.735 6.06264 271.916 6.40602 273.064 6.83947C273.216 6.89576 273.397 6.94079 273.538 7.02523C273.476 6.98582 272.962 6.77192 273.431 6.9802C273.68 7.09278 273.928 7.20536 274.171 7.32358C274.754 7.60503 275.33 7.90901 275.89 8.24113C276.393 8.53385 276.885 8.84908 277.365 9.17557C277.619 9.35008 277.874 9.53021 278.122 9.71035C278.258 9.81167 278.671 10.0594 278.128 9.71035C278.269 9.80041 278.399 9.92426 278.529 10.0312C279.496 10.8137 280.4 11.6693 281.248 12.5756C281.649 13.0034 282.039 13.4481 282.413 13.9041C282.52 14.0392 282.627 14.1743 282.74 14.3094C282.989 14.6134 282.452 13.9153 282.684 14.2362C282.887 14.5177 283.096 14.7935 283.294 15.075C284.029 16.122 284.69 17.2197 285.278 18.3624C285.533 18.8521 285.759 19.3531 285.99 19.8541C286.273 20.479 285.821 19.415 285.996 19.871C286.07 20.0624 286.154 20.2594 286.228 20.4508C286.375 20.8392 286.516 21.2276 286.652 21.6217C287.132 23.029 287.511 24.4757 287.799 25.9336C287.878 26.3389 287.952 26.7442 288.014 27.1552C288.042 27.3184 288.065 27.4817 288.087 27.6449C287.98 26.9976 288.11 27.8138 288.116 27.887C288.212 28.7088 288.28 29.5363 288.325 30.3638C288.41 32.0244 288.393 33.6963 288.28 35.3569C288.223 36.19 288.133 37.0231 288.042 37.8562C287.952 38.6612 288.099 37.496 288.025 37.9857C287.997 38.194 287.963 38.4023 287.935 38.6049C287.873 39.0158 287.799 39.4324 287.726 39.8433C287.415 41.5715 287.008 43.2771 286.527 44.9659C286.126 46.3732 287.019 48.0788 288.489 48.4109C289.981 48.7487 291.518 47.9662 291.948 46.4576C293.796 39.939 294.486 33.1277 293.536 26.4065C292.671 20.2819 290.218 14.5458 286.25 9.78916C282.673 5.51098 277.749 2.15599 272.317 0.731808C266.846 -0.703632 261.126 0.0056442 256.112 2.57818C250.782 5.30833 246.396 10.369 245.288 16.3303C245.022 17.7657 245.684 19.4207 247.249 19.7753C248.629 20.0849 250.426 19.3588 250.709 17.8164Z" fill="#FED444"/>
<path d="M291.445 56.1285C292.581 54.4173 291.886 51.7547 290.021 50.8878C288.155 50.0209 285.6 51.2931 285.267 53.3196C284.933 55.3461 287.053 57.3895 289.06 56.9054C291.066 56.4212 291.982 53.5222 290.558 52.0417" fill="white"/>
<path d="M293.87 57.5415C294.559 56.4719 294.91 55.059 294.78 53.7924C294.735 53.3702 294.689 52.9368 294.588 52.5202C294.48 52.0868 294.288 51.6759 294.113 51.2706C293.853 50.6795 293.463 50.1616 293.033 49.6775C292.01 48.5235 290.541 47.9493 289.031 47.8255C287.771 47.7242 286.335 48.1238 285.284 48.8106C284.023 49.6325 283.034 50.8146 282.622 52.2725C282.192 53.7924 282.469 55.5712 283.362 56.8828C283.905 57.6822 284.476 58.2338 285.256 58.7911C285.437 58.9206 285.634 59.0332 285.838 59.1289C286.25 59.3203 286.691 59.5229 287.144 59.6186C288.054 59.81 288.964 59.8325 289.874 59.5905C290.716 59.3597 291.383 58.9375 292.044 58.3915C292.208 58.2564 292.355 58.11 292.485 57.9468C292.768 57.6034 293.061 57.2487 293.271 56.8491C293.649 56.1342 293.864 55.453 293.972 54.6649C294.203 52.9593 293.723 51.3268 292.536 50.0546C291.535 48.9795 289.563 48.9682 288.557 50.0546C287.494 51.2086 287.488 52.8692 288.557 54.0176C288.619 54.0851 288.681 54.1583 288.737 54.2315C288.59 54.0401 288.444 53.8543 288.297 53.663C288.421 53.8318 288.523 54.012 288.602 54.2034C288.506 53.9782 288.415 53.7586 288.319 53.5335C288.404 53.7474 288.46 53.9669 288.494 54.1977C288.46 53.95 288.427 53.7024 288.393 53.4547C288.427 53.7361 288.421 54.012 288.387 54.2934C288.421 54.0457 288.455 53.798 288.489 53.5504C288.444 53.8543 288.364 54.1471 288.246 54.4341C288.342 54.209 288.432 53.9894 288.528 53.7643C288.415 54.0232 288.274 54.2653 288.104 54.4961C288.251 54.3047 288.398 54.1189 288.545 53.9275C288.387 54.1302 288.206 54.3103 288.003 54.4679C288.195 54.3216 288.381 54.1752 288.574 54.0288C288.404 54.1527 288.229 54.2596 288.037 54.3441C288.263 54.2484 288.483 54.1583 288.709 54.0626C288.5 54.1527 288.28 54.209 288.054 54.2428C288.302 54.209 288.551 54.1752 288.8 54.1414C288.551 54.1696 288.302 54.1696 288.054 54.1358C288.302 54.1696 288.551 54.2034 288.8 54.2371C288.551 54.1977 288.314 54.1302 288.082 54.0345C288.308 54.1302 288.528 54.2202 288.754 54.3159C288.466 54.1921 288.206 54.0345 287.957 53.8431C288.15 53.9894 288.336 54.1358 288.528 54.2822C288.308 54.102 288.11 53.905 287.929 53.6855C288.076 53.8769 288.223 54.0626 288.37 54.254C288.178 54.0063 288.02 53.7418 287.895 53.4547C287.991 53.6798 288.082 53.8994 288.178 54.1245C288.07 53.8656 287.997 53.601 287.963 53.3196C287.997 53.5673 288.031 53.8149 288.065 54.0626C288.042 53.8375 288.042 53.6179 288.065 53.3927C288.031 53.6404 287.997 53.8881 287.963 54.1358C288.003 53.8825 288.07 53.6348 288.167 53.3984C288.07 53.6235 287.98 53.8431 287.884 54.0683C287.986 53.8375 288.116 53.6235 288.268 53.4265C288.121 53.6179 287.974 53.8037 287.827 53.9951C288.014 53.753 288.229 53.5447 288.472 53.359C288.28 53.5053 288.093 53.6517 287.901 53.7981C288.167 53.5954 288.455 53.4322 288.766 53.3027C288.54 53.3984 288.319 53.4884 288.093 53.5841C288.404 53.4603 288.721 53.3759 289.054 53.3308C288.805 53.3646 288.557 53.3984 288.308 53.4322C288.585 53.3984 288.862 53.3984 289.144 53.4322C288.896 53.3984 288.647 53.3646 288.398 53.3308C288.675 53.3702 288.947 53.4434 289.207 53.5504C288.981 53.4547 288.76 53.3646 288.534 53.2689C288.766 53.3759 288.986 53.5053 289.19 53.6573C288.997 53.511 288.811 53.3646 288.619 53.2182C288.839 53.3928 289.031 53.5841 289.207 53.8037C289.06 53.6123 288.913 53.4265 288.766 53.2351C288.969 53.4997 289.127 53.7812 289.263 54.0851C289.167 53.86 289.077 53.6404 288.981 53.4153C289.116 53.7474 289.207 54.0908 289.257 54.4454C289.224 54.1977 289.19 53.95 289.156 53.7024C289.195 54.0345 289.195 54.361 289.156 54.6931C289.19 54.4454 289.224 54.1977 289.257 53.95C289.212 54.254 289.139 54.5467 289.026 54.8282C289.122 54.603 289.212 54.3835 289.308 54.1583C289.229 54.3441 289.133 54.5242 289.02 54.6987C288.636 55.2954 288.551 56.1848 288.737 56.8547C288.918 57.5021 289.421 58.2057 290.032 58.5266C291.422 59.2809 293.022 58.8587 293.87 57.5415Z" fill="#FED444"/>
<path d="M280.157 71.4174C280.626 68.5465 281.118 65.6137 282.565 63.0862C284.012 60.5587 286.629 58.4928 289.546 58.5378C292.988 58.5941 295.786 61.5325 297.001 64.7412C297.928 67.1786 298.132 70.072 296.719 72.2674C294.452 75.7913 289.421 75.9207 285.227 75.6505C282.791 75.4929 279.767 74.8793 279.185 72.5207" fill="#FED444"/>
<path d="M217.835 26.9638C220.774 27.5942 223.645 28.4949 226.426 29.6433C225.895 29.4237 226.539 29.6939 226.613 29.7221C226.743 29.7784 226.867 29.8346 226.997 29.8909C227.348 30.0486 227.698 30.2062 228.049 30.375C228.744 30.7015 229.433 31.0505 230.117 31.4108C231.451 32.1145 232.751 32.88 234.017 33.6963C234.605 34.079 235.187 34.4675 235.764 34.8728C236.052 35.0754 236.335 35.2781 236.617 35.4863C236.787 35.6102 236.957 35.734 237.126 35.8635C237.25 35.9592 237.635 36.2575 237.296 35.993C238.517 36.9443 239.698 37.9463 240.834 38.9989C241.919 40.0066 242.965 41.0592 243.96 42.1513C244.457 42.6973 244.949 43.2546 245.424 43.8232C245.65 44.0934 245.876 44.3692 246.096 44.6394C246.209 44.7745 246.317 44.9152 246.424 45.0559C246.599 45.2755 246.599 45.2755 246.43 45.0616C246.492 45.146 246.56 45.2304 246.622 45.3149C248.696 48.0507 250.494 50.9947 251.986 54.0851C252.546 55.2448 254.298 55.6444 255.355 54.9633C256.553 54.1977 256.836 52.8467 256.237 51.6083C250.76 40.2374 241.049 30.8029 229.484 25.6578C226.155 24.1773 222.713 22.9952 219.146 22.2296C217.891 21.9594 216.422 22.6012 216.116 23.9409C215.834 25.1849 216.49 26.6767 217.835 26.9638Z" fill="white"/>
<path d="M143.507 144.084C146.05 159.03 144.117 174.195 136.006 187.024C143.348 188.234 147.746 188.296 154.907 186.281C162.069 184.266 168.62 178.051 168.445 170.643C168.337 166.111 165.822 161.996 163.007 158.433C157.174 151.053 151.94 146.415 143.501 142.216" fill="#17A4FE"/>
<path d="M142.738 144.298C144.632 155.534 143.982 167.265 139.759 177.921C138.555 180.956 137.057 183.866 135.322 186.624C135.074 187.024 135.294 187.705 135.797 187.789C138.691 188.262 141.613 188.668 144.552 188.668C147.345 188.673 150.114 188.285 152.827 187.643C157.982 186.421 162.736 184.068 166.026 179.813C167.512 177.888 168.626 175.642 169.038 173.232C169.507 170.491 169.089 167.721 168.049 165.16C166.936 162.424 165.257 159.993 163.426 157.69C161.752 155.579 159.989 153.53 158.09 151.616C153.958 147.456 149.148 144.152 143.908 141.534C142.992 141.078 142.184 142.446 143.105 142.908C147.543 145.126 151.697 147.811 155.343 151.177C157.123 152.821 158.785 154.6 160.351 156.446C162.137 158.546 163.883 160.713 165.268 163.105C166.63 165.47 167.637 168.099 167.653 170.857C167.67 173.165 166.97 175.405 165.783 177.381C163.341 181.44 159.09 184.294 154.563 185.566C151.612 186.393 148.594 186.99 145.525 187.08C142.399 187.17 139.296 186.77 136.215 186.27C136.374 186.658 136.532 187.046 136.69 187.435C142.992 177.415 145.711 165.61 145.304 153.845C145.191 150.507 144.824 147.181 144.27 143.882C144.106 142.869 142.568 143.296 142.738 144.298Z" fill="white"/>
<path d="M195.909 145.334C196 160.888 196 179.56 199.747 190.762C192.315 191.122 184.418 190.339 177.534 187.514C170.655 184.693 164.861 177.775 165.884 170.435C166.512 165.948 169.485 162.143 172.69 158.929C179.337 152.264 187.476 147.079 196.339 143.871" fill="#17A4FE"/>
<path d="M195.112 145.334C195.18 157.713 195.005 170.277 196.995 182.537C197.458 185.391 198.063 188.228 198.979 190.97C199.233 190.632 199.493 190.3 199.747 189.962C193.784 190.244 187.742 189.827 181.988 188.2C176.946 186.776 172.238 184.327 169.197 179.925C167.851 177.978 166.862 175.72 166.625 173.351C166.37 170.739 167.015 168.183 168.253 165.886C169.564 163.449 171.395 161.344 173.34 159.396C175.352 157.386 177.494 155.506 179.761 153.789C184.859 149.922 190.534 146.82 196.554 144.63C197.509 144.281 197.096 142.745 196.13 143.099C190.466 145.16 185.097 147.974 180.213 151.492C177.794 153.237 175.488 155.135 173.328 157.189C171.192 159.221 169.146 161.394 167.574 163.894C166.105 166.224 165.093 168.875 164.98 171.645C164.878 174.201 165.568 176.734 166.755 178.985C169.259 183.725 173.741 187.001 178.709 188.814C185.396 191.251 192.671 191.882 199.747 191.55C200.239 191.527 200.686 191.06 200.516 190.542C198.82 185.431 198.103 180.021 197.622 174.679C197.063 168.436 196.882 162.16 196.791 155.894C196.74 152.371 196.723 148.852 196.706 145.328C196.701 144.315 195.107 144.31 195.112 145.334Z" fill="white"/>
<path d="M169.75 186.095C174.408 186.095 178.184 180.243 178.184 173.024C178.184 165.805 174.408 159.953 169.75 159.953C165.093 159.953 161.317 165.805 161.317 173.024C161.317 180.243 165.093 186.095 169.75 186.095Z" fill="#FED444"/>
</g>
<defs>
<clipPath id="clip0_224_633">
<rect width="319" height="288" fill="white"/>
</clipPath>
</defs>
</svg>
