<svg width="38" height="38" viewBox="0 0 38 38" fill="none" xmlns="http://www.w3.org/2000/svg">
<path fill-rule="evenodd" clip-rule="evenodd" d="M10.9599 29.7482C10.0972 29.7482 9.39421 29.0452 9.39421 28.1825C9.39421 27.3198 10.0972 26.6168 10.9599 26.6168H28.1825V29.7482H10.9599ZM10.9599 7.82848H28.1825V23.4854H10.9599C10.4072 23.4854 9.88584 23.5982 9.39421 23.7735V9.39417C9.39421 8.53147 10.0972 7.82848 10.9599 7.82848V7.82848ZM29.7482 4.69709H10.9599C8.37024 4.69709 6.26282 6.80451 6.26282 9.39417V28.1825C6.26282 30.7722 8.37024 32.8796 10.9599 32.8796H28.1825H29.7482C30.6125 32.8796 31.3139 32.1782 31.3139 31.3139V29.7482V26.6168V6.26278C31.3139 5.39852 30.6125 4.69709 29.7482 4.69709V4.69709Z" fill="#17A4FE"/>
<mask id="mask0_469_324" style="mask-type:luminance" maskUnits="userSpaceOnUse" x="6" y="4" width="26" height="29">
<path fill-rule="evenodd" clip-rule="evenodd" d="M10.9599 29.7482C10.0972 29.7482 9.39421 29.0452 9.39421 28.1825C9.39421 27.3198 10.0972 26.6168 10.9599 26.6168H28.1825V29.7482H10.9599ZM10.9599 7.82848H28.1825V23.4854H10.9599C10.4072 23.4854 9.88584 23.5982 9.39421 23.7735V9.39417C9.39421 8.53147 10.0972 7.82848 10.9599 7.82848V7.82848ZM29.7482 4.69709H10.9599C8.37024 4.69709 6.26282 6.80451 6.26282 9.39417V28.1825C6.26282 30.7722 8.37024 32.8796 10.9599 32.8796H28.1825H29.7482C30.6125 32.8796 31.3139 32.1782 31.3139 31.3139V29.7482V26.6168V6.26278C31.3139 5.39852 30.6125 4.69709 29.7482 4.69709V4.69709Z" fill="white"/>
</mask>
<g mask="url(#mask0_469_324)">
<rect width="37.5767" height="37.5767" fill="#17A4FE"/>
</g>
</svg>
